<?xml version="1.0" encoding="UTF-8"?>
<svg xmlns="http://www.w3.org/2000/svg" xmlns:xlink="http://www.w3.org/1999/xlink" width="763.41pt" height="1040pt" viewBox="0 0 763.41 1040" version="1.1">
<defs>
<clipPath id="clip1">
  <path d="M 114 165 L 717 165 L 717 915 L 114 915 Z M 114 165 "/>
</clipPath>
<clipPath id="clip2">
  <path d="M 601.992188 167.835938 C 546.941406 205.441406 456.441406 223.570313 410.054688 230.777344 C 391.269531 233.695313 372.144531 233.695313 353.359375 230.777344 C 306.972656 223.570313 216.472656 205.441406 161.421875 167.835938 C 154.871094 163.363281 145.914063 164.539063 140.8125 170.542969 L 50.214844 277.152344 C 45.144531 283.117188 45.597656 291.839844 51.203125 297.332031 C 75.210938 320.828125 133.101563 387.175781 131.214844 479.027344 C 129.3125 571.871094 119.011719 657.269531 115.003906 687.457031 C 113.855469 696.113281 114.929688 704.882813 118.253906 712.984375 C 127.722656 736.058594 153.140625 782.316406 211.9375 810.144531 C 285.03125 844.742188 365.90625 902.117188 380.539063 912.652344 L 380.539063 914.34375 C 380.539063 914.34375 380.953125 914.039063 381.707031 913.496094 C 382.460938 914.039063 382.875 914.34375 382.875 914.34375 L 382.875 912.652344 C 397.507813 902.117188 478.382813 844.742188 551.476563 810.144531 C 610.296875 782.304688 635.710938 736.023438 645.171875 712.960938 C 648.488281 704.871094 649.558594 696.121094 648.410156 687.484375 C 644.410156 657.320313 634.101563 571.898438 632.199219 479.027344 C 630.3125 387.175781 688.203125 320.828125 712.210938 297.332031 C 717.816406 291.839844 718.269531 283.117188 713.195313 277.152344 L 622.601563 170.542969 C 619.582031 166.988281 615.210938 165.125 610.785156 165.125 C 607.738281 165.125 604.664063 166.011719 601.992188 167.835938 "/>
</clipPath>
<clipPath id="clip3">
  <path d="M 46 165 L 586 165 L 586 508 L 46 508 Z M 46 165 "/>
</clipPath>
<clipPath id="clip4">
  <path d="M 601.992188 167.835938 C 546.941406 205.441406 456.441406 223.570313 410.054688 230.777344 C 391.269531 233.695313 372.144531 233.695313 353.359375 230.777344 C 306.972656 223.570313 216.472656 205.441406 161.421875 167.835938 C 154.871094 163.363281 145.914063 164.539063 140.8125 170.542969 L 50.214844 277.152344 C 45.144531 283.117188 45.597656 291.839844 51.203125 297.332031 C 75.210938 320.828125 133.101563 387.175781 131.214844 479.027344 C 129.3125 571.871094 119.011719 657.269531 115.003906 687.457031 C 113.855469 696.113281 114.929688 704.882813 118.253906 712.984375 C 127.722656 736.058594 153.140625 782.316406 211.9375 810.144531 C 285.03125 844.742188 365.90625 902.117188 380.539063 912.652344 L 380.539063 914.34375 C 380.539063 914.34375 380.953125 914.039063 381.707031 913.496094 C 382.460938 914.039063 382.875 914.34375 382.875 914.34375 L 382.875 912.652344 C 397.507813 902.117188 478.382813 844.742188 551.476563 810.144531 C 610.296875 782.304688 635.710938 736.023438 645.171875 712.960938 C 648.488281 704.871094 649.558594 696.121094 648.410156 687.484375 C 644.410156 657.320313 634.101563 571.898438 632.199219 479.027344 C 630.3125 387.175781 688.203125 320.828125 712.210938 297.332031 C 717.816406 291.839844 718.269531 283.117188 713.195313 277.152344 L 622.601563 170.542969 C 619.582031 166.988281 615.210938 165.125 610.785156 165.125 C 607.738281 165.125 604.664063 166.011719 601.992188 167.835938 "/>
</clipPath>
<clipPath id="clip5">
  <path d="M 196 486 L 649 486 L 649 915 L 196 915 Z M 196 486 "/>
</clipPath>
<clipPath id="clip6">
  <path d="M 601.992188 167.835938 C 546.941406 205.441406 456.441406 223.570313 410.054688 230.777344 C 391.269531 233.695313 372.144531 233.695313 353.359375 230.777344 C 306.972656 223.570313 216.472656 205.441406 161.421875 167.835938 C 154.871094 163.363281 145.914063 164.539063 140.8125 170.542969 L 50.214844 277.152344 C 45.144531 283.117188 45.597656 291.839844 51.203125 297.332031 C 75.210938 320.828125 133.101563 387.175781 131.214844 479.027344 C 129.3125 571.871094 119.011719 657.269531 115.003906 687.457031 C 113.855469 696.113281 114.929688 704.882813 118.253906 712.984375 C 127.722656 736.058594 153.140625 782.316406 211.9375 810.144531 C 285.03125 844.742188 365.90625 902.117188 380.539063 912.652344 L 380.539063 914.34375 C 380.539063 914.34375 380.953125 914.039063 381.707031 913.496094 C 382.460938 914.039063 382.875 914.34375 382.875 914.34375 L 382.875 912.652344 C 397.507813 902.117188 478.382813 844.742188 551.476563 810.144531 C 610.296875 782.304688 635.710938 736.023438 645.171875 712.960938 C 648.488281 704.871094 649.558594 696.121094 648.410156 687.484375 C 644.410156 657.320313 634.101563 571.898438 632.199219 479.027344 C 630.3125 387.175781 688.203125 320.828125 712.210938 297.332031 C 717.816406 291.839844 718.269531 283.117188 713.195313 277.152344 L 622.601563 170.542969 C 619.582031 166.988281 615.210938 165.125 610.785156 165.125 C 607.738281 165.125 604.664063 166.011719 601.992188 167.835938 "/>
</clipPath>
<clipPath id="clip7">
  <path d="M 114 165 L 717 165 L 717 803 L 114 803 Z M 114 165 "/>
</clipPath>
<clipPath id="clip8">
  <path d="M 601.992188 167.835938 C 546.941406 205.441406 456.441406 223.570313 410.054688 230.777344 C 391.269531 233.695313 372.144531 233.695313 353.359375 230.777344 C 306.972656 223.570313 216.472656 205.441406 161.421875 167.835938 C 154.871094 163.363281 145.914063 164.539063 140.8125 170.542969 L 50.214844 277.152344 C 45.144531 283.117188 45.597656 291.839844 51.203125 297.332031 C 75.210938 320.828125 133.101563 387.175781 131.214844 479.027344 C 129.3125 571.871094 119.011719 657.269531 115.003906 687.457031 C 113.855469 696.113281 114.929688 704.882813 118.253906 712.984375 C 127.722656 736.058594 153.140625 782.316406 211.9375 810.144531 C 285.03125 844.742188 365.90625 902.117188 380.539063 912.652344 L 380.539063 914.34375 C 380.539063 914.34375 380.953125 914.039063 381.707031 913.496094 C 382.460938 914.039063 382.875 914.34375 382.875 914.34375 L 382.875 912.652344 C 397.507813 902.117188 478.382813 844.742188 551.476563 810.144531 C 610.296875 782.304688 635.710938 736.023438 645.171875 712.960938 C 648.488281 704.871094 649.558594 696.121094 648.410156 687.484375 C 644.410156 657.320313 634.101563 571.898438 632.199219 479.027344 C 630.3125 387.175781 688.203125 320.828125 712.210938 297.332031 C 717.816406 291.839844 718.269531 283.117188 713.195313 277.152344 L 622.601563 170.542969 C 619.582031 166.988281 615.210938 165.125 610.785156 165.125 C 607.738281 165.125 604.664063 166.011719 601.992188 167.835938 "/>
</clipPath>
<clipPath id="clip9">
  <path d="M 46 165 L 717 165 L 717 803 L 46 803 Z M 46 165 "/>
</clipPath>
<clipPath id="clip10">
  <path d="M 601.992188 167.835938 C 546.941406 205.441406 456.441406 223.570313 410.054688 230.777344 C 391.269531 233.695313 372.144531 233.695313 353.359375 230.777344 C 306.972656 223.570313 216.472656 205.441406 161.421875 167.835938 C 154.871094 163.363281 145.914063 164.539063 140.8125 170.542969 L 50.214844 277.152344 C 45.144531 283.117188 45.597656 291.839844 51.203125 297.332031 C 75.210938 320.828125 133.101563 387.175781 131.214844 479.027344 C 129.3125 571.871094 119.011719 657.269531 115.003906 687.457031 C 113.855469 696.113281 114.929688 704.882813 118.253906 712.984375 C 127.722656 736.058594 153.140625 782.316406 211.9375 810.144531 C 285.03125 844.742188 365.90625 902.117188 380.539063 912.652344 L 380.539063 914.34375 C 380.539063 914.34375 380.953125 914.039063 381.707031 913.496094 C 382.460938 914.039063 382.875 914.34375 382.875 914.34375 L 382.875 912.652344 C 397.507813 902.117188 478.382813 844.742188 551.476563 810.144531 C 610.296875 782.304688 635.710938 736.023438 645.171875 712.960938 C 648.488281 704.871094 649.558594 696.121094 648.410156 687.484375 C 644.410156 657.320313 634.101563 571.898438 632.199219 479.027344 C 630.3125 387.175781 688.203125 320.828125 712.210938 297.332031 C 717.816406 291.839844 718.269531 283.117188 713.195313 277.152344 L 622.601563 170.542969 C 619.582031 166.988281 615.210938 165.125 610.785156 165.125 C 607.738281 165.125 604.664063 166.011719 601.992188 167.835938 "/>
</clipPath>
<clipPath id="clip11">
  <path d="M 196 486 L 649 486 L 649 915 L 196 915 Z M 196 486 "/>
</clipPath>
<clipPath id="clip12">
  <path d="M 601.992188 167.835938 C 546.941406 205.441406 456.441406 223.570313 410.054688 230.777344 C 391.269531 233.695313 372.144531 233.695313 353.359375 230.777344 C 306.972656 223.570313 216.472656 205.441406 161.421875 167.835938 C 154.871094 163.363281 145.914063 164.539063 140.8125 170.542969 L 50.214844 277.152344 C 45.144531 283.117188 45.597656 291.839844 51.203125 297.332031 C 75.210938 320.828125 133.101563 387.175781 131.214844 479.027344 C 129.3125 571.871094 119.011719 657.269531 115.003906 687.457031 C 113.855469 696.113281 114.929688 704.882813 118.253906 712.984375 C 127.722656 736.058594 153.140625 782.316406 211.9375 810.144531 C 285.03125 844.742188 365.90625 902.117188 380.539063 912.652344 L 380.539063 914.34375 C 380.539063 914.34375 380.953125 914.039063 381.707031 913.496094 C 382.460938 914.039063 382.875 914.34375 382.875 914.34375 L 382.875 912.652344 C 397.507813 902.117188 478.382813 844.742188 551.476563 810.144531 C 610.296875 782.304688 635.710938 736.023438 645.171875 712.960938 C 648.488281 704.871094 649.558594 696.121094 648.410156 687.484375 C 644.410156 657.320313 634.101563 571.898438 632.199219 479.027344 C 630.3125 387.175781 688.203125 320.828125 712.210938 297.332031 C 717.816406 291.839844 718.269531 283.117188 713.195313 277.152344 L 622.601563 170.542969 C 619.582031 166.988281 615.210938 165.125 610.785156 165.125 C 607.738281 165.125 604.664063 166.011719 601.992188 167.835938 "/>
</clipPath>
<clipPath id="clip13">
  <path d="M 46 165 L 586 165 L 586 508 L 46 508 Z M 46 165 "/>
</clipPath>
<clipPath id="clip14">
  <path d="M 601.992188 167.835938 C 546.941406 205.441406 456.441406 223.570313 410.054688 230.777344 C 391.269531 233.695313 372.144531 233.695313 353.359375 230.777344 C 306.972656 223.570313 216.472656 205.441406 161.421875 167.835938 C 154.871094 163.363281 145.914063 164.539063 140.8125 170.542969 L 50.214844 277.152344 C 45.144531 283.117188 45.597656 291.839844 51.203125 297.332031 C 75.210938 320.828125 133.101563 387.175781 131.214844 479.027344 C 129.3125 571.871094 119.011719 657.269531 115.003906 687.457031 C 113.855469 696.113281 114.929688 704.882813 118.253906 712.984375 C 127.722656 736.058594 153.140625 782.316406 211.9375 810.144531 C 285.03125 844.742188 365.90625 902.117188 380.539063 912.652344 L 380.539063 914.34375 C 380.539063 914.34375 380.953125 914.039063 381.707031 913.496094 C 382.460938 914.039063 382.875 914.34375 382.875 914.34375 L 382.875 912.652344 C 397.507813 902.117188 478.382813 844.742188 551.476563 810.144531 C 610.296875 782.304688 635.710938 736.023438 645.171875 712.960938 C 648.488281 704.871094 649.558594 696.121094 648.410156 687.484375 C 644.410156 657.320313 634.101563 571.898438 632.199219 479.027344 C 630.3125 387.175781 688.203125 320.828125 712.210938 297.332031 C 717.816406 291.839844 718.269531 283.117188 713.195313 277.152344 L 622.601563 170.542969 C 619.582031 166.988281 615.210938 165.125 610.785156 165.125 C 607.738281 165.125 604.664063 166.011719 601.992188 167.835938 "/>
</clipPath>
<clipPath id="clip15">
  <path d="M 114 165 L 717 165 L 717 803 L 114 803 Z M 114 165 "/>
</clipPath>
<clipPath id="clip16">
  <path d="M 601.992188 167.835938 C 546.941406 205.441406 456.441406 223.570313 410.054688 230.777344 C 391.269531 233.695313 372.144531 233.695313 353.359375 230.777344 C 306.972656 223.570313 216.472656 205.441406 161.421875 167.835938 C 154.871094 163.363281 145.914063 164.539063 140.8125 170.542969 L 50.214844 277.152344 C 45.144531 283.117188 45.597656 291.839844 51.203125 297.332031 C 75.210938 320.828125 133.101563 387.175781 131.214844 479.027344 C 129.3125 571.871094 119.011719 657.269531 115.003906 687.457031 C 113.855469 696.113281 114.929688 704.882813 118.253906 712.984375 C 127.722656 736.058594 153.140625 782.316406 211.9375 810.144531 C 285.03125 844.742188 365.90625 902.117188 380.539063 912.652344 L 380.539063 914.34375 C 380.539063 914.34375 380.953125 914.039063 381.707031 913.496094 C 382.460938 914.039063 382.875 914.34375 382.875 914.34375 L 382.875 912.652344 C 397.507813 902.117188 478.382813 844.742188 551.476563 810.144531 C 610.296875 782.304688 635.710938 736.023438 645.171875 712.960938 C 648.488281 704.871094 649.558594 696.121094 648.410156 687.484375 C 644.410156 657.320313 634.101563 571.898438 632.199219 479.027344 C 630.3125 387.175781 688.203125 320.828125 712.210938 297.332031 C 717.816406 291.839844 718.269531 283.117188 713.195313 277.152344 L 622.601563 170.542969 C 619.582031 166.988281 615.210938 165.125 610.785156 165.125 C 607.738281 165.125 604.664063 166.011719 601.992188 167.835938 "/>
</clipPath>
<clipPath id="clip17">
  <path d="M 196 486 L 649 486 L 649 913 L 196 913 Z M 196 486 "/>
</clipPath>
<clipPath id="clip18">
  <path d="M 601.992188 167.835938 C 546.941406 205.441406 456.441406 223.570313 410.054688 230.777344 C 391.269531 233.695313 372.144531 233.695313 353.359375 230.777344 C 306.972656 223.570313 216.472656 205.441406 161.421875 167.835938 C 154.871094 163.363281 145.914063 164.539063 140.8125 170.542969 L 50.214844 277.152344 C 45.144531 283.117188 45.597656 291.839844 51.203125 297.332031 C 75.210938 320.828125 133.101563 387.175781 131.214844 479.027344 C 129.3125 571.871094 119.011719 657.269531 115.003906 687.457031 C 113.855469 696.113281 114.929688 704.882813 118.253906 712.984375 C 127.722656 736.058594 153.140625 782.316406 211.9375 810.144531 C 285.03125 844.742188 365.90625 902.117188 380.539063 912.652344 L 380.539063 914.34375 C 380.539063 914.34375 380.953125 914.039063 381.707031 913.496094 C 382.460938 914.039063 382.875 914.34375 382.875 914.34375 L 382.875 912.652344 C 397.507813 902.117188 478.382813 844.742188 551.476563 810.144531 C 610.296875 782.304688 635.710938 736.023438 645.171875 712.960938 C 648.488281 704.871094 649.558594 696.121094 648.410156 687.484375 C 644.410156 657.320313 634.101563 571.898438 632.199219 479.027344 C 630.3125 387.175781 688.203125 320.828125 712.210938 297.332031 C 717.816406 291.839844 718.269531 283.117188 713.195313 277.152344 L 622.601563 170.542969 C 619.582031 166.988281 615.210938 165.125 610.785156 165.125 C 607.738281 165.125 604.664063 166.011719 601.992188 167.835938 "/>
</clipPath>
<clipPath id="clip19">
  <path d="M 631 827 L 763.410156 827 L 763.410156 971 L 631 971 Z M 631 827 "/>
</clipPath>
</defs>
<g id="surface1">
<path style=" stroke:none;fill-rule:nonzero;fill:rgb(93.699646%,10.198975%,13.699341%);fill-opacity:1;" d="M 355.183594 94.371094 C 355.183594 94.371094 333.964844 36.230469 406.4375 0 C 406.4375 0 392.527344 18.410156 406.683594 39.378906 C 420.839844 60.359375 427.414063 87.578125 404.660156 102.449219 C 404.660156 102.449219 430.984375 89.140625 429.382813 66.28125 C 429.382813 66.28125 472.4375 132.171875 415.617188 165.855469 C 358.796875 199.542969 306.3125 146.476563 319.246094 108.167969 C 319.246094 108.167969 323.320313 127.410156 343.492188 134.734375 C 343.492188 134.734375 310.871094 106.847656 338.5 53.828125 C 338.5 53.828125 334.558594 92.550781 355.183594 94.371094 "/>
<path style=" stroke:none;fill-rule:nonzero;fill:rgb(82.398987%,61.599731%,1.998901%);fill-opacity:1;" d="M 460.878906 197.820313 C 460.878906 203.886719 455.960938 208.820313 449.878906 208.820313 L 313.535156 208.820313 C 307.453125 208.820313 302.535156 203.886719 302.535156 197.820313 C 302.535156 194.785156 303.757813 192.03125 305.757813 190.042969 C 307.746094 188.054688 310.488281 186.820313 313.535156 186.820313 L 351.335938 186.820313 C 350.851563 186.5625 350.363281 186.28125 349.882813 186.003906 C 340.84375 180.726563 333.742188 173.253906 329.714844 164.546875 C 342.066406 175.179688 360.769531 181.949219 381.714844 181.949219 C 402.644531 181.949219 421.347656 175.179688 433.699219 164.546875 C 429.453125 173.714844 421.820313 181.503906 412.09375 186.820313 L 449.878906 186.820313 C 455.960938 186.820313 460.878906 191.753906 460.878906 197.820313 "/>
<path style=" stroke:none;fill-rule:nonzero;fill:rgb(60.798645%,45.098877%,1.599121%);fill-opacity:1;" d="M 313.535156 187.457031 C 310.769531 187.457031 308.167969 188.535156 306.210938 190.496094 C 304.25 192.441406 303.171875 195.042969 303.171875 197.820313 C 303.171875 203.535156 307.820313 208.183594 313.535156 208.183594 L 449.878906 208.183594 C 455.59375 208.183594 460.242188 203.535156 460.242188 197.820313 C 460.242188 192.105469 455.59375 187.457031 449.878906 187.457031 L 409.597656 187.457031 L 411.785156 186.257813 C 420.441406 181.527344 427.4375 174.746094 431.765625 166.953125 C 418.898438 176.917969 400.855469 182.585938 381.714844 182.585938 C 362.558594 182.585938 344.503906 176.914063 331.640625 166.941406 C 335.726563 174.355469 342.09375 180.714844 350.203125 185.453125 C 350.679688 185.726563 351.152344 186.003906 351.628906 186.253906 L 353.910156 187.457031 Z M 449.878906 209.460938 L 313.535156 209.460938 C 307.117188 209.460938 301.894531 204.238281 301.894531 197.820313 C 301.894531 194.703125 303.109375 191.777344 305.308594 189.59375 C 307.507813 187.394531 310.429688 186.179688 313.535156 186.179688 L 348.929688 186.179688 C 339.945313 180.785156 333.109375 173.410156 329.132813 164.8125 L 327.898438 162.144531 L 330.128906 164.0625 C 342.863281 175.023438 361.664063 181.3125 381.714844 181.3125 C 401.753906 181.3125 420.550781 175.023438 433.285156 164.0625 L 435.515625 162.144531 L 434.277344 164.8125 C 430.34375 173.316406 423.359375 180.832031 414.480469 186.179688 L 449.878906 186.179688 C 456.296875 186.179688 461.515625 191.402344 461.515625 197.820313 C 461.515625 204.238281 456.296875 209.460938 449.878906 209.460938 "/>
<path style=" stroke:none;fill-rule:nonzero;fill:rgb(82.398987%,61.599731%,1.998901%);fill-opacity:1;" d="M 314.414063 238.703125 L 449.003906 238.703125 L 449.003906 212.3125 L 314.414063 212.3125 Z M 314.414063 238.703125 "/>
<path style=" stroke:none;fill-rule:nonzero;fill:rgb(60.798645%,45.098877%,1.599121%);fill-opacity:1;" d="M 315.050781 238.066406 L 448.367188 238.066406 L 448.367188 212.949219 L 315.050781 212.949219 Z M 449.640625 239.339844 L 313.777344 239.339844 L 313.777344 211.675781 L 449.640625 211.675781 Z M 449.640625 239.339844 "/>
<g clip-path="url(#clip1)" clip-rule="nonzero">
<g clip-path="url(#clip2)" clip-rule="nonzero">
<path style=" stroke:none;fill-rule:nonzero;fill:rgb(100%,100%,100%);fill-opacity:1;" d="M 622.601563 170.542969 C 617.496094 164.539063 608.542969 163.359375 601.992188 167.835938 C 596.777344 171.398438 591.242188 174.785156 585.457031 178.007813 L 130.378906 507.316406 C 127.265625 588.808594 118.601563 660.363281 115.003906 687.457031 C 113.855469 696.113281 114.929688 704.882813 118.253906 712.984375 C 127.722656 736.058594 153.140625 782.316406 211.9375 810.144531 C 285.03125 844.742188 365.90625 902.117188 380.539063 912.652344 L 380.539063 914.34375 C 380.539063 914.34375 380.953125 914.039063 381.707031 913.496094 C 382.460938 914.039063 382.875 914.34375 382.875 914.34375 L 382.875 912.652344 C 397.507813 902.117188 478.382813 844.742188 551.476563 810.144531 C 610.296875 782.304688 635.710938 736.023438 645.171875 712.960938 C 648.488281 704.871094 649.558594 696.121094 648.414063 687.484375 C 644.410156 657.320313 634.101563 571.898438 632.199219 479.027344 C 630.3125 387.175781 688.203125 320.828125 712.210938 297.328125 C 717.816406 291.839844 718.269531 283.117188 713.199219 277.148438 "/>
</g>
</g>
<g clip-path="url(#clip3)" clip-rule="nonzero">
<g clip-path="url(#clip4)" clip-rule="nonzero">
<path style=" stroke:none;fill-rule:nonzero;fill:rgb(100%,100%,100%);fill-opacity:1;" d="M 410.054688 230.777344 C 391.269531 233.695313 372.144531 233.695313 353.359375 230.777344 C 306.972656 223.570313 216.472656 205.441406 161.421875 167.835938 C 154.871094 163.359375 145.914063 164.539063 140.8125 170.546875 L 50.21875 277.152344 C 45.144531 283.117188 45.59375 291.839844 51.203125 297.332031 C 75.207031 320.828125 133.101563 387.175781 131.214844 479.027344 C 131.019531 488.554688 130.734375 498 130.378906 507.316406 L 585.457031 178.007813 C 530.1875 208.777344 452.046875 224.253906 410.054688 230.777344 "/>
<path style=" stroke:none;fill-rule:nonzero;fill:rgb(100%,100%,100%);fill-opacity:1;" d="M 410.054688 230.777344 C 391.269531 233.695313 372.144531 233.695313 353.359375 230.777344 C 306.972656 223.570313 216.472656 205.441406 161.421875 167.835938 C 154.871094 163.359375 145.914063 164.539063 140.8125 170.546875 L 50.21875 277.152344 C 45.144531 283.117188 45.59375 291.839844 51.203125 297.332031 C 75.207031 320.828125 133.101563 387.175781 131.214844 479.027344 C 131.019531 488.554688 130.734375 498 130.378906 507.316406 L 585.457031 178.007813 C 530.1875 208.777344 452.046875 224.253906 410.054688 230.777344 "/>
</g>
</g>
<g clip-path="url(#clip5)" clip-rule="nonzero">
<g clip-path="url(#clip6)" clip-rule="nonzero">
<path style=" stroke:none;fill-rule:nonzero;fill:rgb(100%,100%,100%);fill-opacity:1;" d="M 632.378906 486.820313 L 196.679688 802.105469 C 201.5 804.917969 206.578125 807.609375 211.9375 810.144531 C 285.03125 844.742188 365.90625 902.117188 380.539063 912.652344 L 380.539063 914.34375 C 380.539063 914.34375 380.953125 914.039063 381.707031 913.496094 C 382.460938 914.039063 382.875 914.34375 382.875 914.34375 L 382.875 912.652344 C 397.507813 902.117188 478.382813 844.742188 551.476563 810.144531 C 610.296875 782.304688 635.710938 736.023438 645.171875 712.960938 C 648.488281 704.871094 649.558594 696.121094 648.410156 687.484375 C 644.523438 658.164063 634.675781 576.644531 632.378906 486.820313 "/>
</g>
</g>
<g clip-path="url(#clip7)" clip-rule="nonzero">
<g clip-path="url(#clip8)" clip-rule="nonzero">
<path style=" stroke:none;fill-rule:nonzero;fill:rgb(100%,100%,100%);fill-opacity:1;" d="M 632.199219 479.027344 C 630.3125 387.175781 688.203125 320.828125 712.210938 297.328125 C 717.816406 291.839844 718.269531 283.117188 713.195313 277.152344 L 622.601563 170.542969 C 617.5 164.539063 608.542969 163.359375 601.992188 167.835938 C 596.777344 171.398438 591.242188 174.785156 585.457031 178.007813 L 130.378906 507.316406 C 127.261719 588.808594 118.601563 660.363281 115.003906 687.457031 C 113.855469 696.113281 114.929688 704.882813 118.253906 712.984375 C 126.859375 733.957031 148.640625 774.074219 196.679688 802.105469 L 632.378906 486.820313 C 632.3125 484.230469 632.25 481.632813 632.199219 479.027344 "/>
</g>
</g>
<g clip-path="url(#clip9)" clip-rule="nonzero">
<g clip-path="url(#clip10)" clip-rule="nonzero">
<path style=" stroke:none;fill-rule:nonzero;fill:rgb(100%,100%,100%);fill-opacity:1;" d="M 632.199219 479.027344 C 630.3125 387.175781 688.203125 320.828125 712.210938 297.328125 C 717.816406 291.839844 718.269531 283.117188 713.195313 277.152344 L 622.601563 170.542969 C 617.5 164.539063 608.542969 163.359375 601.992188 167.835938 C 546.941406 205.441406 456.441406 223.570313 410.054688 230.777344 C 391.269531 233.695313 372.144531 233.695313 353.359375 230.777344 C 306.972656 223.570313 216.472656 205.441406 161.421875 167.835938 C 154.871094 163.359375 145.914063 164.539063 140.8125 170.542969 L 50.214844 277.152344 C 45.144531 283.117188 45.59375 291.839844 51.203125 297.328125 C 75.210938 320.828125 133.101563 387.175781 131.214844 479.027344 C 129.3125 571.871094 119.011719 657.269531 115.003906 687.457031 C 113.855469 696.113281 114.929688 704.882813 118.253906 712.984375 C 126.859375 733.957031 148.640625 774.074219 196.679688 802.105469 L 632.378906 486.820313 C 632.3125 484.230469 632.25 481.632813 632.199219 479.027344 "/>
</g>
</g>
<g clip-path="url(#clip11)" clip-rule="nonzero">
<g clip-path="url(#clip12)" clip-rule="nonzero">
<path style=" stroke:none;fill-rule:nonzero;fill:rgb(100%,100%,100%);fill-opacity:1;" d="M 380.539063 912.652344 L 380.539063 914.34375 C 380.539063 914.34375 380.953125 914.039063 381.707031 913.496094 C 382.460938 914.039063 382.875 914.34375 382.875 914.34375 L 382.875 912.652344 C 397.507813 902.117188 478.382813 844.742188 551.476563 810.144531 C 610.296875 782.304688 635.710938 736.023438 645.171875 712.960938 C 648.488281 704.871094 649.558594 696.121094 648.410156 687.484375 C 644.519531 658.164063 634.675781 576.644531 632.378906 486.820313 L 196.679688 802.105469 C 201.496094 804.917969 206.578125 807.609375 211.9375 810.144531 C 285.03125 844.742188 365.90625 902.117188 380.539063 912.652344 "/>
</g>
</g>
<g clip-path="url(#clip13)" clip-rule="nonzero">
<g clip-path="url(#clip14)" clip-rule="nonzero">
<path style=" stroke:none;fill-rule:nonzero;fill:rgb(100%,0%,0%);fill-opacity:1;" d="M 410.054688 230.777344 C 391.269531 233.695313 372.144531 233.695313 353.359375 230.777344 C 306.972656 223.570313 216.472656 205.441406 161.421875 167.835938 C 154.871094 163.359375 145.914063 164.539063 140.8125 170.546875 L 50.21875 277.152344 C 45.144531 283.117188 45.59375 291.839844 51.203125 297.332031 C 75.207031 320.828125 133.101563 387.175781 131.214844 479.027344 C 131.019531 488.554688 130.734375 498 130.378906 507.316406 L 585.457031 178.007813 C 530.1875 208.777344 452.046875 224.253906 410.054688 230.777344 "/>
</g>
</g>
<g clip-path="url(#clip15)" clip-rule="nonzero">
<g clip-path="url(#clip16)" clip-rule="nonzero">
<path style=" stroke:none;fill-rule:nonzero;fill:rgb(100%,100%,100%);fill-opacity:1;" d="M 632.199219 479.027344 C 630.3125 387.175781 688.203125 320.828125 712.210938 297.328125 C 717.816406 291.839844 718.269531 283.117188 713.195313 277.152344 L 622.601563 170.542969 C 617.5 164.539063 608.542969 163.359375 601.992188 167.835938 C 596.777344 171.398438 591.242188 174.785156 585.457031 178.007813 L 130.378906 507.316406 C 127.261719 588.808594 118.601563 660.363281 115.003906 687.457031 C 113.855469 696.113281 114.929688 704.882813 118.253906 712.984375 C 126.859375 733.957031 148.640625 774.074219 196.679688 802.105469 L 632.378906 486.820313 C 632.3125 484.230469 632.25 481.632813 632.199219 479.027344 "/>
</g>
</g>
<g clip-path="url(#clip17)" clip-rule="nonzero">
<g clip-path="url(#clip18)" clip-rule="nonzero">
<path style=" stroke:none;fill-rule:nonzero;fill:rgb(0%,0%,0%);fill-opacity:1;" d="M 648.410156 687.484375 C 644.519531 658.164063 634.675781 576.644531 632.378906 486.820313 L 196.679688 802.105469 C 201.496094 804.917969 206.578125 807.609375 211.9375 810.144531 C 285.03125 844.742188 365.90625 902.117188 380.539063 912.652344 L 380.539063 913 L 382.875 913 L 382.875 912.652344 C 397.507813 902.117188 478.382813 844.742188 551.476563 810.144531 C 610.296875 782.304688 635.710938 736.023438 645.171875 712.960938 C 648.488281 704.871094 649.558594 696.121094 648.410156 687.484375 "/>
</g>
</g>
<path style=" stroke:none;fill-rule:nonzero;fill:rgb(14.099121%,70.599365%,61.199951%);fill-opacity:1;" d="M 200.496094 589.214844 L 562.894531 589.214844 C 573.304688 564.304688 578.726563 536.839844 577.898438 508.09375 C 574.785156 399.738281 484.417969 314.425781 376.0625 317.542969 C 267.710938 320.660156 182.398438 411.023438 185.511719 519.378906 C 186.226563 544.125 191.496094 567.660156 200.496094 589.214844 "/>
<path style=" stroke:none;fill-rule:nonzero;fill:rgb(60.798645%,45.098877%,1.599121%);fill-opacity:1;" d="M 238.851563 388.394531 L 264.648438 412.75 C 241.605469 439.3125 227.484375 473.730469 226.785156 511.261719 L 191.589844 512.273438 C 191.933594 465.03125 209.664063 421.640625 238.851563 388.394531 M 369.320313 324.019531 L 370.347656 359.730469 C 332.972656 362.453125 299.421875 378.335938 274.171875 402.6875 L 248.363281 378.324219 C 279.871094 347.273438 322.175781 327.074219 369.320313 324.019531 M 372.003906 417.273438 C 350.476563 419.410156 331.097656 428.5 316.050781 442.226563 L 284.3125 412.261719 C 307.121094 390.460938 337.238281 376.171875 370.746094 373.578125 Z M 374.300781 497.21875 L 326.175781 451.785156 C 338.742188 440.59375 354.71875 433.128906 372.402344 431.160156 Z M 319.246094 569.808594 C 307.941406 557.117188 300.441406 540.953125 298.5625 523.058594 L 365.191406 521.140625 Z M 316.628906 461.824219 L 364.789063 507.292969 L 298.242188 509.207031 C 299.3125 491.378906 306.011719 474.980469 316.628906 461.824219 M 284.355469 509.605469 L 240.644531 510.863281 C 241.4375 477.203125 254.136719 446.285156 274.769531 422.304688 L 306.503906 452.265625 C 293.492188 468.035156 285.371094 487.933594 284.355469 509.605469 M 507.046875 370.882813 L 482.683594 396.691406 C 456.074219 373.828125 421.667969 359.898438 384.195313 359.328125 L 383.171875 323.617188 C 430.410156 323.960938 473.804688 341.695313 507.046875 370.882813 M 517.121094 380.394531 C 548.171875 411.902344 568.367188 454.203125 571.425781 501.351563 L 536.226563 502.363281 C 533.375 464.933594 517.300781 431.382813 492.769531 406.1875 Z M 478.65625 504.019531 C 476.398438 482.4375 467.148438 463.042969 453.253906 448.042969 L 483.210938 416.3125 C 505.191406 439.0625 519.644531 469.203125 522.367188 502.761719 Z M 447.289063 566.125 L 398.621094 520.179688 L 465.25 518.265625 C 464.398438 536.234375 457.839844 552.804688 447.289063 566.125 M 443.695313 458.167969 C 455.050781 470.695313 462.679688 486.679688 464.769531 504.417969 L 398.222656 506.332031 Z M 388.148438 496.820313 L 386.25 430.761719 C 404.019531 431.710938 420.394531 438.246094 433.585938 448.699219 Z M 384.59375 373.179688 C 418.191406 373.84375 449.085938 386.375 473.109375 406.832031 L 443.144531 438.574219 C 427.335938 425.730469 407.464844 417.769531 385.851563 416.875 Z M 191.988281 526.121094 L 227.15625 525.109375 C 228.769531 548.296875 235.445313 570.015625 246.0625 589.214844 L 262.210938 589.214844 C 250.304688 570.296875 242.75 548.339844 241.007813 524.710938 L 284.675781 523.457031 C 286.714844 545.195313 295.847656 564.765625 309.6875 579.933594 L 300.921875 589.214844 L 344.6875 589.214844 C 339.191406 586.488281 334.023438 583.183594 329.28125 579.355469 L 375.261719 530.652344 L 376.945313 589.214844 L 390.808594 589.214844 L 389.113281 530.253906 L 437.816406 576.234375 C 432.132813 581.390625 425.730469 585.765625 418.777344 589.214844 L 444.023438 589.214844 C 445.355469 588.105469 446.671875 586.972656 447.941406 585.792969 L 451.566406 589.214844 L 471.746094 589.214844 L 457.414063 575.683594 C 470.359375 559.746094 478.351563 539.683594 479.136719 517.863281 L 522.804688 516.609375 C 522.375 543.171875 514.535156 568.054688 501.222656 589.214844 L 517.371094 589.214844 C 529.394531 567.484375 536.339844 542.605469 536.652344 516.210938 L 571.824219 515.199219 C 571.632813 541.417969 566.078125 566.445313 556.191406 589.214844 L 571.269531 589.214844 C 580.484375 566.140625 585.597656 541.03125 585.71875 514.800781 C 585.730469 512.496094 585.71875 510.1875 585.648438 507.871094 C 585.585938 505.550781 585.464844 503.246094 585.320313 500.949219 C 582.144531 449.90625 560.320313 404.171875 526.71875 370.230469 C 523.46875 366.949219 520.105469 363.777344 516.644531 360.71875 C 480.828125 329.121094 433.910156 309.960938 382.769531 309.726563 C 380.46875 309.714844 378.160156 309.726563 375.84375 309.792969 C 373.523438 309.859375 371.21875 309.980469 368.921875 310.121094 C 317.878906 313.296875 272.140625 335.125 238.199219 368.730469 C 234.917969 371.980469 231.746094 375.335938 228.6875 378.800781 C 197.09375 414.617188 177.929688 461.53125 177.695313 512.671875 C 177.683594 514.976563 177.695313 517.285156 177.761719 519.601563 C 177.828125 521.921875 177.949219 524.226563 178.09375 526.523438 C 179.464844 548.59375 184.339844 569.660156 192.136719 589.214844 L 207.203125 589.214844 C 198.734375 569.691406 193.4375 548.453125 191.988281 526.121094 "/>
<path style=" stroke:none;fill-rule:nonzero;fill:rgb(93.699646%,73.699951%,14.498901%);fill-opacity:1;" d="M 590.269531 666.9375 C 590.269531 658.867188 581.832031 652.324219 571.425781 652.324219 C 561.019531 652.324219 552.585938 658.867188 552.585938 666.9375 C 552.585938 675.011719 561.019531 681.558594 571.425781 681.558594 C 581.832031 681.558594 590.269531 675.011719 590.269531 666.9375 "/>
<path style=" stroke:none;fill-rule:nonzero;fill:rgb(60.798645%,45.098877%,1.599121%);fill-opacity:1;" d="M 571.425781 653.820313 C 561.863281 653.820313 554.085938 659.707031 554.085938 666.9375 C 554.085938 674.171875 561.863281 680.058594 571.425781 680.058594 C 580.988281 680.058594 588.769531 674.171875 588.769531 666.9375 C 588.769531 659.707031 580.988281 653.820313 571.425781 653.820313 M 571.425781 683.058594 C 560.210938 683.058594 551.085938 675.828125 551.085938 666.9375 C 551.085938 658.050781 560.210938 650.820313 571.425781 650.820313 C 582.644531 650.820313 591.769531 658.050781 591.769531 666.9375 C 591.769531 675.828125 582.644531 683.058594 571.425781 683.058594 "/>
<path style=" stroke:none;fill-rule:nonzero;fill:rgb(93.699646%,73.699951%,14.498901%);fill-opacity:1;" d="M 228.308594 666.9375 C 228.308594 658.867188 219.871094 652.324219 209.464844 652.324219 C 199.058594 652.324219 190.621094 658.867188 190.621094 666.9375 C 190.621094 675.011719 199.058594 681.558594 209.464844 681.558594 C 219.871094 681.558594 228.308594 675.011719 228.308594 666.9375 "/>
<path style=" stroke:none;fill-rule:nonzero;fill:rgb(60.798645%,45.098877%,1.599121%);fill-opacity:1;" d="M 209.464844 653.820313 C 199.902344 653.820313 192.121094 659.707031 192.121094 666.9375 C 192.121094 674.171875 199.902344 680.058594 209.464844 680.058594 C 219.027344 680.058594 226.808594 674.171875 226.808594 666.9375 C 226.808594 659.707031 219.027344 653.820313 209.464844 653.820313 M 209.464844 683.058594 C 198.246094 683.058594 189.121094 675.828125 189.121094 666.9375 C 189.121094 658.050781 198.246094 650.820313 209.464844 650.820313 C 220.683594 650.820313 229.808594 658.050781 229.808594 666.9375 C 229.808594 675.828125 220.683594 683.058594 209.464844 683.058594 "/>
<path style=" stroke:none;fill-rule:nonzero;fill:rgb(93.699646%,73.699951%,14.498901%);fill-opacity:1;" d="M 209.683594 625.722656 C 210.496094 636.753906 211.585938 647.824219 212.953125 658.917969 C 220.953125 661.757813 229.003906 664.398438 237.097656 666.84375 C 238.148438 663.382813 239.195313 659.921875 240.246094 656.460938 C 242.445313 657.125 244.648438 657.773438 246.855469 658.410156 C 245.851563 661.886719 244.847656 665.359375 243.84375 668.835938 C 270.394531 676.503906 297.40625 682.074219 324.632813 685.546875 C 334.839844 677.605469 344.601563 669.367188 353.90625 660.878906 C 366.589844 662.527344 379.351563 663.703125 392.171875 664.390625 C 406.925781 663.691406 421.621094 662.347656 436.21875 660.375 C 446.625 668.664063 457.53125 676.632813 468.921875 684.238281 C 491.4375 680.949219 513.800781 676.214844 535.867188 670.035156 C 534.898438 666.550781 533.929688 663.066406 532.960938 659.582031 C 535.175781 658.964844 537.390625 658.328125 539.601563 657.683594 C 540.613281 661.15625 541.628906 664.628906 542.644531 668.097656 C 550.777344 665.714844 558.867188 663.132813 566.910156 660.355469 C 568.402344 649.261719 569.609375 638.195313 570.53125 627.160156 C 574.152344 625.792969 577.765625 624.382813 581.363281 622.929688 C 580.082031 637.308594 578.296875 651.753906 576.003906 666.234375 C 565.761719 669.914063 555.4375 673.277344 545.046875 676.324219 C 545.929688 679.339844 546.808594 682.355469 547.6875 685.371094 C 545.355469 686.054688 543.023438 686.722656 540.683594 687.375 C 539.84375 684.347656 539.003906 681.320313 538.160156 678.292969 C 490.902344 691.929688 442.203125 699.050781 393.402344 699.617188 C 393.402344 699.628906 393.402344 699.636719 393.402344 699.644531 C 392.902344 699.644531 392.40625 699.640625 391.90625 699.636719 C 391.515625 699.640625 391.132813 699.644531 390.742188 699.644531 C 390.742188 699.640625 390.742188 699.632813 390.742188 699.625 C 340.324219 699.070313 290.074219 691.527344 241.46875 677.066406 C 240.597656 680.085938 239.722656 683.105469 238.851563 686.121094 C 236.523438 685.453125 234.199219 684.765625 231.878906 684.066406 C 232.789063 681.058594 233.703125 678.050781 234.613281 675.046875 C 224.269531 671.917969 214 668.480469 203.816406 664.722656 C 201.6875 650.238281 200.054688 635.792969 198.917969 621.414063 C 202.492188 622.894531 206.082031 624.328125 209.683594 625.722656 "/>
<path style=" stroke:none;fill-rule:nonzero;fill:rgb(60.798645%,45.098877%,1.599121%);fill-opacity:1;" d="M 574.5625 665.214844 C 576.691406 651.828125 578.386719 638.476563 579.652344 625.175781 C 577.089844 626.195313 574.523438 627.195313 571.949219 628.171875 C 571.035156 639.210938 569.835938 650.285156 568.351563 661.386719 C 559.464844 664.476563 550.519531 667.324219 541.523438 669.933594 C 540.519531 666.457031 539.515625 662.980469 538.507813 659.507813 C 537.289063 659.859375 536.070313 660.210938 534.847656 660.554688 L 537.785156 671 C 514.953125 677.460938 491.800781 682.382813 468.488281 685.761719 C 457.09375 678.152344 446.183594 670.183594 435.769531 661.890625 C 421.292969 663.828125 406.71875 665.144531 392.089844 665.835938 C 379.472656 665.15625 366.90625 664.011719 354.417969 662.402344 C 345.109375 670.890625 335.34375 679.125 325.140625 687.066406 C 297.085938 683.527344 269.253906 677.765625 241.917969 669.78125 C 242.933594 666.308594 243.949219 662.839844 244.960938 659.363281 C 243.746094 659.011719 242.527344 658.652344 241.316406 658.289063 C 240.277344 661.757813 239.238281 665.222656 238.199219 668.6875 C 229.242188 666.007813 220.34375 663.089844 211.503906 659.933594 C 210.144531 648.835938 209.0625 637.757813 208.257813 626.71875 C 205.699219 625.722656 203.148438 624.707031 200.605469 623.671875 C 201.730469 636.96875 203.285156 650.324219 205.265625 663.714844 C 215.617188 667.507813 226.054688 670.980469 236.570313 674.125 C 235.667969 677.132813 234.765625 680.144531 233.859375 683.152344 C 235.132813 683.53125 236.410156 683.910156 237.6875 684.28125 C 238.566406 681.261719 239.449219 678.238281 240.335938 675.21875 C 289.292969 689.941406 339.9375 697.617188 390.761719 698.179688 C 440.84375 697.839844 490.851563 690.585938 539.316406 676.449219 C 540.171875 679.480469 541.019531 682.507813 541.871094 685.539063 C 543.152344 685.179688 544.433594 684.8125 545.714844 684.441406 C 544.84375 681.421875 543.972656 678.40625 543.101563 675.386719 C 553.664063 672.324219 564.15625 668.933594 574.5625 665.214844 M 539.484375 689.207031 C 538.65625 686.183594 537.828125 683.15625 536.996094 680.132813 C 490.628906 693.363281 442.898438 700.339844 395.054688 701.042969 C 395.054688 701.0625 395.058594 701.078125 395.058594 701.097656 C 343.589844 700.941406 292.257813 693.519531 242.613281 678.910156 C 241.75 681.929688 240.886719 684.945313 240.023438 687.960938 C 236.636719 686.996094 233.257813 686 229.886719 684.972656 C 230.808594 681.96875 231.726563 678.964844 232.648438 675.960938 C 222.480469 672.855469 212.382813 669.445313 202.367188 665.730469 C 200.085938 650.148438 198.378906 634.609375 197.246094 619.15625 C 201.847656 621.082031 206.464844 622.9375 211.105469 624.722656 C 211.925781 635.746094 213.023438 646.808594 214.398438 657.894531 C 221.5625 660.421875 228.765625 662.789063 236.007813 665 C 237.066406 661.542969 238.125 658.085938 239.183594 654.628906 C 242.363281 655.597656 245.550781 656.535156 248.746094 657.445313 C 247.753906 660.925781 246.757813 664.402344 245.765625 667.878906 C 271.53125 675.238281 297.726563 680.621094 324.128906 684.027344 C 334.335938 676.082031 344.097656 667.847656 353.402344 659.355469 C 366.226563 661.042969 379.136719 662.242188 392.101563 662.945313 C 407.027344 662.238281 421.898438 660.871094 436.664063 658.855469 C 447.0625 667.140625 457.964844 675.109375 469.351563 682.710938 C 491.070313 679.511719 512.648438 674.964844 533.957031 669.066406 C 532.996094 665.578125 532.039063 662.089844 531.078125 658.601563 C 534.285156 657.71875 537.484375 656.804688 540.679688 655.859375 C 541.703125 659.328125 542.730469 662.796875 543.757813 666.265625 C 551.03125 664.109375 558.273438 661.792969 565.476563 659.320313 C 566.976563 648.238281 568.1875 637.175781 569.117188 626.148438 C 573.785156 624.398438 578.4375 622.574219 583.0625 620.679688 C 581.773438 636.136719 579.902344 651.671875 577.445313 667.253906 C 567.371094 670.894531 557.222656 674.226563 547.003906 677.253906 C 547.894531 680.269531 548.785156 683.28125 549.671875 686.296875 C 546.285156 687.300781 542.886719 688.269531 539.484375 689.207031 "/>
<path style=" stroke:none;fill-rule:nonzero;fill:rgb(93.699646%,73.699951%,14.498901%);fill-opacity:1;" d="M 460.53125 642.617188 L 492.769531 682.175781 L 398.222656 730.035156 L 298.5625 692.722656 L 342.902344 645.253906 "/>
<path style=" stroke:none;fill-rule:nonzero;fill:rgb(60.798645%,45.098877%,1.599121%);fill-opacity:1;" d="M 301.8125 691.960938 L 398.113281 728.015625 L 489.875 681.5625 L 459.667969 644.492188 L 343.722656 647.089844 Z M 398.335938 732.058594 L 295.3125 693.488281 L 342.078125 643.417969 L 461.398438 640.742188 L 495.660156 682.789063 "/>
<path style=" stroke:none;fill-rule:nonzero;fill:rgb(93.699646%,73.699951%,14.498901%);fill-opacity:1;" d="M 443.925781 650.375 C 443.925781 621.890625 420.832031 598.800781 392.347656 598.800781 C 363.863281 598.800781 340.773438 621.890625 340.773438 650.375 C 340.773438 678.859375 363.863281 701.949219 392.347656 701.949219 C 420.832031 701.949219 443.925781 678.859375 443.925781 650.375 "/>
<path style=" stroke:none;fill-rule:nonzero;fill:rgb(60.798645%,45.098877%,1.599121%);fill-opacity:1;" d="M 392.347656 600.652344 C 364.933594 600.652344 342.628906 622.957031 342.628906 650.375 C 342.628906 677.789063 364.933594 700.09375 392.347656 700.09375 C 419.765625 700.09375 442.070313 677.789063 442.070313 650.375 C 442.070313 622.957031 419.765625 600.652344 392.347656 600.652344 M 392.347656 703.804688 C 362.886719 703.804688 338.917969 679.835938 338.917969 650.375 C 338.917969 620.914063 362.886719 596.945313 392.347656 596.945313 C 421.8125 596.945313 445.78125 620.914063 445.78125 650.375 C 445.78125 679.835938 421.8125 703.804688 392.347656 703.804688 "/>
<path style=" stroke:none;fill-rule:nonzero;fill:rgb(93.699646%,73.699951%,14.498901%);fill-opacity:1;" d="M 205.75 387.363281 L 217.695313 400.597656 L 224.042969 411.644531 L 212.359375 422.191406 L 202.019531 414.746094 L 190.074219 401.511719 "/>
<path style=" stroke:none;fill-rule:nonzero;fill:rgb(60.798645%,45.098877%,1.599121%);fill-opacity:1;" d="M 216.601563 401.394531 L 205.652344 389.261719 L 191.972656 401.609375 L 202.921875 413.742188 L 212.261719 420.464844 L 222.335938 411.371094 Z M 201.230469 415.839844 L 188.171875 401.414063 L 205.847656 385.460938 L 218.695313 399.699219 L 225.746094 411.914063 L 212.453125 423.914063 "/>
<path style=" stroke:none;fill-rule:nonzero;fill:rgb(93.699646%,73.699951%,14.498901%);fill-opacity:1;" d="M 221.636719 413.8125 L 338.882813 543.722656 L 332.007813 549.925781 L 214.761719 420.019531 Z M 221.636719 413.8125 "/>
<path style=" stroke:none;fill-rule:nonzero;fill:rgb(60.798645%,45.098877%,1.599121%);fill-opacity:1;" d="M 221.539063 415.714844 L 216.664063 420.117188 L 332.105469 548.027344 L 336.980469 543.625 Z M 212.863281 419.921875 L 221.734375 411.914063 L 340.78125 543.816406 L 331.910156 551.828125 "/>
<path style=" stroke:none;fill-rule:nonzero;fill:rgb(93.699646%,73.699951%,14.498901%);fill-opacity:1;" d="M 341.140625 541.6875 L 372.988281 575.953125 L 361.601563 586.230469 L 329.75 551.964844 Z M 341.140625 541.6875 "/>
<path style=" stroke:none;fill-rule:nonzero;fill:rgb(60.798645%,45.098877%,1.599121%);fill-opacity:1;" d="M 341.054688 543.570313 L 331.664063 552.046875 L 361.683594 584.34375 L 371.074219 575.867188 Z M 327.835938 551.878906 L 341.222656 539.800781 L 374.902344 576.035156 L 361.519531 588.113281 "/>
<path style=" stroke:none;fill-rule:nonzero;fill:rgb(93.699646%,73.699951%,14.498901%);fill-opacity:1;" d="M 161.171875 386.398438 L 173.117188 399.632813 L 179.464844 410.679688 L 167.78125 421.226563 L 157.441406 413.785156 L 145.496094 400.546875 "/>
<path style=" stroke:none;fill-rule:nonzero;fill:rgb(60.798645%,45.098877%,1.599121%);fill-opacity:1;" d="M 172.023438 400.429688 L 161.074219 388.296875 L 147.394531 400.644531 L 158.34375 412.777344 L 167.6875 419.5 L 177.757813 410.410156 Z M 156.65625 414.875 L 143.59375 400.449219 L 161.269531 384.496094 L 174.117188 398.734375 L 181.171875 410.949219 L 167.875 422.953125 "/>
<path style=" stroke:none;fill-rule:nonzero;fill:rgb(93.699646%,73.699951%,14.498901%);fill-opacity:1;" d="M 177.0625 412.851563 L 294.304688 542.757813 L 287.429688 548.964844 L 170.183594 419.054688 Z M 177.0625 412.851563 "/>
<path style=" stroke:none;fill-rule:nonzero;fill:rgb(60.798645%,45.098877%,1.599121%);fill-opacity:1;" d="M 176.964844 414.75 L 172.085938 419.152344 L 287.527344 547.066406 L 292.40625 542.660156 Z M 168.285156 418.960938 L 177.160156 410.949219 L 296.203125 542.855469 L 287.332031 550.863281 "/>
<path style=" stroke:none;fill-rule:nonzero;fill:rgb(93.699646%,73.699951%,14.498901%);fill-opacity:1;" d="M 296.5625 540.722656 L 330.472656 578.296875 L 319.085938 588.574219 L 285.171875 551 Z M 296.5625 540.722656 "/>
<path style=" stroke:none;fill-rule:nonzero;fill:rgb(60.798645%,45.098877%,1.599121%);fill-opacity:1;" d="M 296.464844 542.621094 L 287.074219 551.097656 L 319.183594 586.675781 L 328.570313 578.199219 Z M 283.273438 550.902344 L 296.660156 538.824219 L 332.371094 578.390625 L 318.988281 590.472656 "/>
<path style=" stroke:none;fill-rule:nonzero;fill:rgb(93.699646%,73.699951%,14.498901%);fill-opacity:1;" d="M 309.585938 610.011719 L 311.589844 583.023438 L 355.484375 631.453125 L 353.480469 658.445313 L 315.109375 663.605469 L 271.214844 615.175781 "/>
<path style=" stroke:none;fill-rule:nonzero;fill:rgb(60.798645%,45.098877%,1.599121%);fill-opacity:1;" d="M 274.285156 616.558594 L 279.371094 615.8125 L 320.011719 661.589844 L 315.628906 662.179688 Z M 323.226563 661.15625 L 282.558594 615.34375 L 285.28125 614.945313 L 325.980469 660.785156 Z M 329.195313 660.355469 L 288.46875 614.476563 L 291.195313 614.074219 L 331.949219 659.984375 Z M 335.164063 659.550781 L 294.378906 613.609375 L 297.105469 613.207031 L 337.914063 659.183594 Z M 341.128906 658.746094 L 300.289063 612.738281 L 303.015625 612.339844 L 343.886719 658.378906 Z M 350.769531 657.453125 L 347.101563 657.945313 L 306.199219 611.871094 L 309.074219 611.449219 Z M 310.972656 609.539063 L 312.703125 586.246094 L 354.101563 631.929688 L 352.371094 655.21875 Z M 269.460938 615.242188 L 271.078125 617.03125 L 314.589844 665.035156 L 322.164063 664.015625 L 325.378906 663.578125 L 328.128906 663.210938 L 331.347656 662.777344 L 334.101563 662.410156 L 337.3125 661.976563 L 340.066406 661.605469 L 343.28125 661.171875 L 352.960938 659.871094 L 309.074219 611.449219 L 352.960938 659.871094 L 354.742188 659.628906 L 354.867188 657.96875 L 356.871094 630.980469 L 312.976563 582.550781 L 312.144531 581.628906 L 310.335938 581.773438 L 270.664063 584.914063 L 269.507813 614.046875 "/>
<path style=" stroke:none;fill-rule:nonzero;fill:rgb(93.699646%,73.699951%,14.498901%);fill-opacity:1;" d="M 300.765625 591.492188 L 300.695313 601.953125 L 291.3125 597.886719 "/>
<path style=" stroke:none;fill-rule:nonzero;fill:rgb(93.699646%,73.699951%,14.498901%);fill-opacity:1;" d="M 277.945313 604.03125 L 278.015625 593.566406 L 287.394531 597.632813 "/>
<path style=" stroke:none;fill-rule:nonzero;fill:rgb(93.699646%,73.699951%,14.498901%);fill-opacity:1;" d="M 297.046875 608.265625 L 286.660156 609.546875 L 289.484375 599.71875 "/>
<path style=" stroke:none;fill-rule:nonzero;fill:rgb(93.699646%,73.699951%,14.498901%);fill-opacity:1;" d="M 281.664063 587.257813 L 292.050781 585.972656 L 289.226563 595.800781 "/>
<path style=" stroke:none;fill-rule:nonzero;fill:rgb(93.699646%,73.699951%,14.498901%);fill-opacity:1;" d="M 374.265625 574.339844 L 374.507813 592.820313 L 343.792969 608.53125 L 306.351563 606.734375 L 299.136719 585.027344 L 307.558594 580.640625 C 307.558594 580.640625 315.984375 576.632813 318.132813 573 L 338.433594 568.097656 "/>
<path style=" stroke:none;fill-rule:nonzero;fill:rgb(60.798645%,45.098877%,1.599121%);fill-opacity:1;" d="M 372.933594 575.472656 L 338.476563 569.472656 L 318.964844 574.183594 C 316.328125 577.886719 309 581.441406 308.179688 581.828125 L 300.773438 585.691406 L 307.335938 605.4375 L 343.5 607.171875 L 373.152344 592.003906 Z M 305.363281 608.035156 L 297.496094 584.363281 L 306.980469 579.425781 C 309.222656 578.355469 315.386719 575.003906 316.976563 572.316406 L 317.265625 571.828125 L 338.386719 566.726563 L 375.59375 573.203125 L 375.863281 593.636719 L 344.085938 609.890625 "/>
<path style=" stroke:none;fill-rule:nonzero;fill:rgb(93.699646%,73.699951%,14.498901%);fill-opacity:1;" d="M 435.683594 657.585938 L 396.714844 666.390625 L 343.792969 608.53125 L 374.507813 592.820313 Z M 435.683594 657.585938 "/>
<path style=" stroke:none;fill-rule:nonzero;fill:rgb(60.798645%,45.098877%,1.599121%);fill-opacity:1;" d="M 374.222656 594.476563 L 345.976563 608.925781 L 397.179688 664.90625 L 433.085938 656.792969 Z M 341.609375 608.140625 L 374.792969 591.164063 L 438.28125 658.378906 L 396.25 667.875 "/>
<path style=" stroke:none;fill-rule:nonzero;fill:rgb(93.699646%,73.699951%,14.498901%);fill-opacity:1;" d="M 306.351563 606.734375 L 359.136719 665.246094 L 396.714844 666.390625 L 343.792969 608.53125 Z M 306.351563 606.734375 "/>
<path style=" stroke:none;fill-rule:nonzero;fill:rgb(60.798645%,45.098877%,1.599121%);fill-opacity:1;" d="M 309.511719 608.230469 L 359.753906 663.921875 L 393.574219 664.953125 L 343.175781 609.847656 Z M 358.523438 666.574219 L 303.1875 605.238281 L 343.855469 607.1875 L 344.410156 607.214844 L 399.855469 667.828125 "/>
<path style=" stroke:none;fill-rule:nonzero;fill:rgb(93.699646%,73.699951%,14.498901%);fill-opacity:1;" d="M 374.507813 592.820313 L 374.265625 574.339844 L 383.285156 572.328125 L 396.875 586.695313 L 396.128906 615.710938 "/>
<path style=" stroke:none;fill-rule:nonzero;fill:rgb(60.798645%,45.098877%,1.599121%);fill-opacity:1;" d="M 382.832031 573.808594 L 375.621094 575.410156 L 375.847656 592.277344 L 394.867188 612.414063 L 395.515625 587.214844 Z M 373.171875 593.363281 L 372.90625 573.265625 L 383.738281 570.847656 L 398.234375 586.175781 L 397.390625 619.003906 "/>
<path style=" stroke:none;fill-rule:nonzero;fill:rgb(93.699646%,73.699951%,14.498901%);fill-opacity:1;" d="M 434.503906 610.546875 L 436.507813 583.558594 L 480.402344 631.988281 L 478.398438 658.980469 L 440.023438 664.140625 L 396.128906 615.710938 "/>
<path style=" stroke:none;fill-rule:nonzero;fill:rgb(60.798645%,45.098877%,1.599121%);fill-opacity:1;" d="M 399.199219 617.09375 L 404.289063 616.347656 L 444.929688 662.125 L 440.546875 662.714844 Z M 448.140625 661.695313 L 407.472656 615.878906 L 410.199219 615.480469 L 450.894531 661.324219 Z M 454.109375 660.890625 L 413.382813 615.011719 L 416.109375 614.609375 L 456.863281 660.519531 Z M 460.078125 660.085938 L 419.292969 614.144531 L 422.019531 613.742188 L 462.832031 659.71875 Z M 466.046875 659.285156 L 425.203125 613.273438 L 427.929688 612.875 L 468.800781 658.914063 Z M 475.683594 657.988281 L 472.015625 658.480469 L 431.113281 612.40625 L 433.988281 611.984375 Z M 435.886719 610.074219 L 437.617188 586.785156 L 479.015625 632.464844 L 477.289063 655.753906 Z M 394.375 615.777344 L 395.996094 617.566406 L 439.503906 665.570313 L 447.078125 664.550781 L 450.292969 664.117188 L 453.046875 663.746094 L 456.261719 663.3125 L 459.015625 662.945313 L 462.230469 662.511719 L 464.980469 662.140625 L 468.195313 661.707031 L 477.875 660.40625 L 433.988281 611.984375 L 477.875 660.40625 L 479.65625 660.164063 L 479.78125 658.503906 L 481.785156 631.515625 L 437.890625 583.085938 L 437.058594 582.164063 L 435.25 582.308594 L 395.578125 585.449219 L 394.421875 614.582031 "/>
<path style=" stroke:none;fill-rule:nonzero;fill:rgb(93.699646%,73.699951%,14.498901%);fill-opacity:1;" d="M 425.679688 592.027344 L 425.609375 602.488281 L 416.230469 598.421875 "/>
<path style=" stroke:none;fill-rule:nonzero;fill:rgb(93.699646%,73.699951%,14.498901%);fill-opacity:1;" d="M 402.859375 604.566406 L 402.929688 594.101563 L 412.308594 598.171875 "/>
<path style=" stroke:none;fill-rule:nonzero;fill:rgb(93.699646%,73.699951%,14.498901%);fill-opacity:1;" d="M 421.960938 608.800781 L 411.574219 610.082031 L 414.398438 600.253906 "/>
<path style=" stroke:none;fill-rule:nonzero;fill:rgb(93.699646%,73.699951%,14.498901%);fill-opacity:1;" d="M 406.578125 587.789063 L 416.964844 586.507813 L 414.140625 596.335938 "/>
<path style=" stroke:none;fill-rule:nonzero;fill:rgb(93.699646%,73.699951%,14.498901%);fill-opacity:1;" d="M 238.238281 247.664063 C 280.808594 265.804688 320.628906 310.734375 320.628906 310.734375 L 420.476563 414.386719 L 519.292969 466.421875 L 547.507813 504.121094 L 521.816406 519.585938 L 526.453125 524.402344 L 543.375 552.382813 L 532.789063 561.761719 L 522.746094 571.726563 L 495.910156 553.046875 L 492.910156 549.761719 L 479.585938 571.511719 L 442.109375 542.996094 L 383.945313 430.394531 L 295.886719 333.933594 C 295.886719 333.933594 253.605469 291.316406 238.238281 247.664063 "/>
<path style=" stroke:none;fill-rule:nonzero;fill:rgb(64.299011%,46.699524%,1.599121%);fill-opacity:1;" d="M 443.894531 540.945313 L 385.730469 428.34375 L 297.671875 331.882813 C 297.671875 331.882813 257.398438 291.285156 241.179688 248.757813 C 240.1875 248.304688 239.191406 247.859375 238.199219 247.4375 C 253.566406 291.085938 295.851563 333.703125 295.851563 333.703125 L 383.90625 430.164063 L 442.070313 542.765625 L 479.546875 571.28125 L 480.886719 569.089844 "/>
<path style=" stroke:none;fill-rule:nonzero;fill:rgb(64.299011%,46.699524%,1.599121%);fill-opacity:1;" d="M 534.574219 559.710938 L 524.53125 569.675781 L 497.695313 550.996094 L 494.695313 547.710938 L 493.296875 549.992188 L 495.871094 552.816406 L 522.710938 571.496094 L 532.75 561.53125 L 543.335938 552.152344 L 543.253906 552.019531 "/>
<path style=" stroke:none;fill-rule:nonzero;fill:rgb(64.299011%,46.699524%,1.599121%);fill-opacity:1;" d="M 523.601563 517.535156 L 524.042969 517.992188 L 547.46875 503.890625 L 547.09375 503.390625 Z M 523.601563 517.535156 "/>
<path style=" stroke:none;fill-rule:nonzero;fill:rgb(60.798645%,45.098877%,1.599121%);fill-opacity:1;" d="M 531.613281 493.855469 L 516.121094 503.339844 L 514.152344 492.851563 L 525.46875 486.542969 Z M 515.488281 504.765625 L 532.953125 494.074219 L 525.679688 485.410156 L 513.164063 492.386719 "/>
<path style=" stroke:none;fill-rule:nonzero;fill:rgb(60.798645%,45.098877%,1.599121%);fill-opacity:1;" d="M 478.535156 540.628906 L 468.929688 556.042969 L 461.664063 549.84375 L 468.0625 538.574219 Z M 479.96875 540.007813 L 467.609375 537.582031 L 460.53125 550.042969 L 469.140625 557.386719 "/>
<path style=" stroke:none;fill-rule:nonzero;fill:rgb(60.798645%,45.098877%,1.599121%);fill-opacity:1;" d="M 242.554688 252.269531 C 278.011719 269.28125 310.816406 303.636719 317.546875 310.9375 L 296.851563 331.464844 C 291.261719 325.644531 257.667969 289.769531 242.554688 252.269531 M 321.414063 315.027344 L 408.347656 405.269531 L 418.738281 416.058594 L 521.136719 522.355469 L 509.339844 534.058594 L 311.953125 324.507813 L 310.007813 326.34375 Z M 307.910156 328.425781 L 505.34375 538.023438 L 495.265625 548.023438 L 385.453125 429.757813 L 373.433594 415.304688 L 300.675781 335.601563 Z M 395.683594 447.867188 L 490.167969 549.621094 L 489.90625 550.046875 L 478.921875 567.972656 L 444.003906 541.40625 Z M 522.21875 516.527344 L 432.601563 423.496094 L 517.6875 468.300781 L 543.976563 503.429688 Z M 524.921875 526.527344 L 540.269531 551.910156 L 531.1875 559.957031 L 522.476563 568.597656 L 498.992188 552.253906 Z M 234.140625 243.300781 L 235.960938 248.464844 C 250.222656 288.972656 287.742188 328.953125 293.429688 334.863281 C 293.871094 335.324219 294.144531 335.601563 294.175781 335.632813 L 297.25 339.003906 L 381.945313 431.785156 L 440.214844 544.585938 L 480.246094 575.042969 L 493.292969 553.753906 L 494.3125 554.871094 L 495.511719 555.707031 L 523.019531 574.855469 L 534.488281 563.476563 L 546.476563 552.855469 L 528.402344 523.074219 L 528.191406 522.730469 L 525.652344 520.089844 L 551.039063 504.8125 L 520.898438 464.539063 L 421.941406 412.429688 L 324.839844 311.628906 L 322.398438 309.09375 C 322.261719 308.941406 321.773438 308.398438 320.972656 307.535156 C 313.375 299.324219 277.203125 261.644531 239.183594 245.445313 "/>
<path style=" stroke:none;fill-rule:nonzero;fill:rgb(93.699646%,73.699951%,14.498901%);fill-opacity:1;" d="M 493.769531 729.148438 C 428.761719 755.691406 355.9375 755.691406 290.925781 729.148438 C 280.433594 754.851563 269.941406 780.550781 259.449219 806.253906 C 344.632813 841.035156 440.0625 841.035156 525.25 806.253906 C 514.757813 780.550781 504.265625 754.851563 493.769531 729.148438 "/>
<path style=" stroke:none;fill-rule:nonzero;fill:rgb(60.798645%,45.098877%,1.599121%);fill-opacity:1;" d="M 481.429688 762.90625 C 478.792969 754.558594 476.160156 746.207031 473.519531 737.855469 C 480.078125 735.785156 486.574219 733.460938 492.992188 730.875 C 496.261719 739 499.53125 747.125 502.800781 755.246094 C 495.753906 758.082031 488.625 760.636719 481.429688 762.90625 M 514.410156 784.105469 C 506.621094 787.238281 498.746094 790.0625 490.796875 792.570313 C 487.9375 783.515625 485.078125 774.460938 482.21875 765.402344 C 489.476563 763.109375 496.667969 760.535156 503.777344 757.675781 C 507.320313 766.484375 510.867188 775.296875 514.410156 784.105469 M 523.105469 805.714844 C 514.761719 809.070313 506.324219 812.09375 497.804688 814.78125 C 495.730469 808.210938 493.65625 801.636719 491.582031 795.066406 C 499.597656 792.535156 507.539063 789.691406 515.386719 786.535156 C 517.960938 792.925781 520.53125 799.320313 523.105469 805.714844 M 468.605469 822.632813 C 467.105469 815.90625 465.605469 809.179688 464.105469 802.453125 C 472.265625 800.632813 480.367188 798.5 488.402344 796.054688 C 490.410156 802.644531 492.414063 809.238281 494.425781 815.828125 C 485.890625 818.429688 477.273438 820.699219 468.605469 822.632813 M 438.980469 827.914063 C 438.0625 821.085938 437.144531 814.253906 436.226563 807.425781 C 444.480469 806.316406 452.699219 804.894531 460.871094 803.15625 C 462.304688 809.898438 463.738281 816.640625 465.167969 823.378906 C 456.488281 825.226563 447.75 826.734375 438.980469 827.914063 M 409.089844 830.632813 C 408.761719 823.746094 408.433594 816.863281 408.101563 809.980469 C 416.402344 809.585938 424.695313 808.871094 432.953125 807.847656 C 433.804688 814.6875 434.652344 821.523438 435.5 828.363281 C 426.722656 829.453125 417.914063 830.210938 409.089844 830.632813 M 379.105469 830.78125 C 379.367188 823.894531 379.628906 817.007813 379.886719 810.121094 C 388.191406 810.433594 396.503906 810.433594 404.8125 810.121094 C 405.070313 817.007813 405.332031 823.894531 405.589844 830.78125 C 396.765625 831.113281 387.933594 831.113281 379.105469 830.78125 M 349.195313 828.363281 C 350.046875 821.523438 350.894531 814.6875 351.742188 807.847656 C 360.003906 808.871094 368.296875 809.585938 376.597656 809.980469 C 376.265625 816.863281 375.9375 823.746094 375.609375 830.632813 C 366.785156 830.210938 357.976563 829.453125 349.195313 828.363281 M 319.53125 823.378906 C 320.960938 816.640625 322.394531 809.898438 323.828125 803.15625 C 331.996094 804.894531 340.21875 806.316406 348.472656 807.425781 C 347.554688 814.253906 346.636719 821.085938 345.71875 827.914063 C 336.949219 826.738281 328.210938 825.226563 319.53125 823.378906 M 290.273438 815.828125 C 292.28125 809.238281 294.289063 802.644531 296.296875 796.054688 C 304.328125 798.5 312.433594 800.632813 320.589844 802.453125 C 319.089844 809.179688 317.589844 815.90625 316.089844 822.632813 C 307.421875 820.699219 298.808594 818.429688 290.273438 815.828125 M 261.59375 805.714844 C 264.164063 799.320313 266.738281 792.925781 269.3125 786.535156 C 277.160156 789.691406 285.101563 792.535156 293.117188 795.066406 C 291.039063 801.636719 288.964844 808.210938 286.894531 814.78125 C 278.375 812.09375 269.9375 809.070313 261.59375 805.714844 M 280.921875 757.675781 C 288.03125 760.535156 295.222656 763.113281 302.480469 765.402344 C 299.621094 774.460938 296.761719 783.515625 293.902344 792.570313 C 285.953125 790.0625 278.074219 787.238281 270.285156 784.105469 C 273.832031 775.296875 277.378906 766.484375 280.921875 757.675781 M 291.703125 730.875 C 298.125 733.460938 304.621094 735.785156 311.175781 737.855469 C 308.539063 746.207031 305.902344 754.558594 303.269531 762.90625 C 296.074219 760.636719 288.945313 758.085938 281.898438 755.246094 C 285.164063 747.125 288.433594 739 291.703125 730.875 M 333.648438 743.898438 C 331.746094 752.445313 329.839844 760.992188 327.933594 769.539063 C 320.609375 767.90625 313.335938 765.992188 306.121094 763.792969 C 308.675781 755.417969 311.226563 747.039063 313.777344 738.660156 C 320.351563 740.664063 326.980469 742.410156 333.648438 743.898438 M 356.457031 747.964844 C 355.289063 756.644531 354.125 765.320313 352.960938 774.003906 C 345.550781 773.007813 338.171875 771.730469 330.835938 770.171875 C 332.65625 761.605469 334.476563 753.039063 336.296875 744.472656 C 342.980469 745.894531 349.703125 747.058594 356.457031 747.964844 M 379.464844 750.054688 C 379.046875 758.800781 378.628906 767.550781 378.207031 776.296875 C 370.753906 775.9375 363.3125 775.300781 355.898438 774.382813 C 356.976563 765.691406 358.054688 757 359.132813 748.308594 C 365.890625 749.148438 372.671875 749.730469 379.464844 750.054688 M 402.539063 750.171875 L 403.535156 776.421875 C 396.078125 776.703125 388.617188 776.703125 381.164063 776.421875 L 382.15625 750.171875 C 388.949219 750.425781 395.746094 750.425781 402.539063 750.171875 M 425.5625 748.308594 C 426.644531 757 427.722656 765.691406 428.800781 774.382813 C 421.382813 775.300781 413.945313 775.9375 406.492188 776.296875 C 406.070313 767.550781 405.652344 758.800781 405.234375 750.054688 C 412.023438 749.730469 418.808594 749.148438 425.5625 748.308594 M 448.398438 744.472656 C 450.222656 753.039063 452.039063 761.605469 453.863281 770.171875 C 446.527344 771.730469 439.144531 773.007813 431.738281 774.003906 C 430.574219 765.320313 429.40625 756.644531 428.242188 747.964844 C 434.992188 747.058594 441.714844 745.894531 448.398438 744.472656 M 432.085938 776.59375 C 439.5625 775.59375 447.003906 774.304688 454.40625 772.730469 C 456.378906 782.019531 458.355469 791.308594 460.328125 800.597656 C 452.222656 802.320313 444.066406 803.730469 435.878906 804.832031 C 434.617188 795.417969 433.351563 786.007813 432.085938 776.59375 M 406.617188 778.910156 C 414.132813 778.550781 421.640625 777.90625 429.121094 776.976563 C 430.292969 786.402344 431.464844 795.824219 432.632813 805.25 C 424.4375 806.265625 416.214844 806.972656 407.976563 807.367188 C 407.523438 797.882813 407.070313 788.394531 406.617188 778.910156 M 381.0625 779.035156 C 388.585938 779.320313 396.113281 779.320313 403.636719 779.035156 C 403.992188 788.527344 404.351563 798.015625 404.710938 807.507813 C 396.472656 807.816406 388.226563 807.816406 379.988281 807.507813 C 380.347656 798.015625 380.703125 788.527344 381.0625 779.035156 M 355.574219 776.976563 C 363.058594 777.90625 370.5625 778.550781 378.082031 778.910156 C 377.628906 788.394531 377.175781 797.882813 376.722656 807.367188 C 368.484375 806.972656 360.261719 806.265625 352.066406 805.25 C 353.234375 795.824219 354.40625 786.402344 355.574219 776.976563 M 330.292969 772.730469 C 337.691406 774.304688 345.136719 775.59375 352.613281 776.59375 L 348.820313 804.832031 C 340.632813 803.730469 332.476563 802.320313 324.371094 800.597656 C 326.347656 791.308594 328.320313 782.019531 330.292969 772.730469 M 305.359375 766.296875 C 312.636719 768.511719 319.976563 770.445313 327.363281 772.09375 C 325.296875 781.359375 323.226563 790.632813 321.160156 799.898438 C 313.070313 798.09375 305.027344 795.976563 297.058594 793.550781 C 299.828125 784.464844 302.59375 775.382813 305.359375 766.296875 M 487.640625 793.550781 C 479.671875 795.976563 471.628906 798.09375 463.539063 799.898438 C 461.472656 790.632813 459.402344 781.359375 457.335938 772.09375 C 464.722656 770.445313 472.0625 768.511719 479.335938 766.296875 C 482.105469 775.382813 484.871094 784.464844 487.640625 793.550781 M 470.921875 738.660156 C 473.472656 747.039063 476.023438 755.417969 478.574219 763.792969 C 471.363281 765.992188 464.089844 767.90625 456.765625 769.539063 C 454.859375 760.992188 452.953125 752.445313 451.046875 743.898438 C 457.71875 742.410156 464.347656 740.664063 470.921875 738.660156 M 472.734375 735.359375 C 471.875 735.632813 471.015625 735.898438 470.15625 736.160156 C 463.648438 738.140625 457.085938 739.871094 450.476563 741.34375 C 449.605469 741.539063 448.730469 741.726563 447.855469 741.914063 C 441.238281 743.320313 434.578125 744.472656 427.894531 745.371094 C 427.007813 745.488281 426.125 745.601563 425.242188 745.714844 C 418.550781 746.542969 411.835938 747.121094 405.109375 747.441406 C 404.222656 747.484375 403.332031 747.523438 402.445313 747.554688 C 395.714844 747.808594 388.980469 747.808594 382.253906 747.554688 C 381.367188 747.523438 380.476563 747.484375 379.589844 747.441406 C 372.863281 747.121094 366.148438 746.542969 359.453125 745.714844 C 358.574219 745.601563 357.6875 745.488281 356.804688 745.371094 C 350.121094 744.472656 343.460938 743.320313 336.839844 741.914063 C 335.96875 741.726563 335.09375 741.539063 334.222656 741.34375 C 327.613281 739.871094 321.046875 738.140625 314.539063 736.160156 C 313.679688 735.898438 312.824219 735.632813 311.964844 735.359375 C 304.613281 733.039063 297.339844 730.394531 290.164063 727.421875 C 286.480469 736.316406 282.792969 745.214844 279.109375 754.109375 C 278.773438 754.914063 278.441406 755.722656 278.105469 756.527344 C 274.472656 765.300781 270.839844 774.074219 267.203125 782.847656 C 266.871094 783.652344 266.535156 784.460938 266.203125 785.265625 C 263.230469 792.4375 260.261719 799.609375 257.289063 806.78125 C 266.777344 810.710938 276.390625 814.210938 286.105469 817.277344 C 287.238281 817.636719 288.371094 817.984375 289.511719 818.332031 C 298.109375 820.953125 306.789063 823.238281 315.519531 825.183594 C 316.675781 825.441406 317.828125 825.695313 318.984375 825.9375 C 327.734375 827.800781 336.535156 829.320313 345.371094 830.507813 C 346.539063 830.664063 347.703125 830.816406 348.875 830.960938 C 357.71875 832.058594 366.59375 832.820313 375.484375 833.242188 C 376.65625 833.300781 377.832031 833.351563 379.007813 833.394531 C 387.898438 833.730469 396.800781 833.730469 405.691406 833.394531 C 406.867188 833.351563 408.039063 833.300781 409.214844 833.242188 C 418.101563 832.820313 426.980469 832.058594 435.824219 830.960938 C 436.992188 830.816406 438.160156 830.664063 439.328125 830.507813 C 448.164063 829.320313 456.964844 827.800781 465.714844 825.9375 C 466.867188 825.695313 468.023438 825.441406 469.179688 825.183594 C 477.910156 823.238281 486.585938 820.953125 495.1875 818.332031 C 496.324219 817.984375 497.460938 817.636719 498.59375 817.277344 C 508.308594 814.210938 517.921875 810.710938 527.40625 806.78125 C 524.4375 799.609375 521.464844 792.4375 518.492188 785.265625 C 518.160156 784.460938 517.828125 783.652344 517.492188 782.847656 C 513.859375 774.074219 510.226563 765.300781 506.589844 756.527344 L 505.589844 754.109375 C 501.90625 745.214844 498.21875 736.316406 494.535156 727.421875 C 487.359375 730.394531 480.085938 733.039063 472.734375 735.359375 "/>
<g clip-path="url(#clip19)" clip-rule="nonzero">
<path style=" stroke:none;fill-rule:nonzero;fill:rgb(93.299866%,67.098999%,0%);fill-opacity:1;" d="M 631.617188 875.664063 L 631.617188 970.164063 C 676.398438 957.636719 720.460938 941.675781 763.414063 922.277344 C 748.816406 913.117188 734.097656 903.5625 719.261719 893.609375 C 734.097656 872.0625 748.816406 850.117188 763.414063 827.777344 C 720.460938 847.171875 676.398438 863.132813 631.617188 875.664063 "/>
</g>
<path style=" stroke:none;fill-rule:nonzero;fill:rgb(78.399658%,42.698669%,0%);fill-opacity:1;" d="M 687.929688 893.496094 C 669.308594 888.164063 650.527344 882.21875 631.617188 875.664063 L 631.617188 911.203125 C 650.527344 905.914063 669.308594 900.011719 687.929688 893.496094 "/>
<path style=" stroke:none;fill-rule:nonzero;fill:rgb(93.299866%,67.098999%,0%);fill-opacity:1;" d="M 131.796875 875.664063 L 131.796875 970.164063 C 87.015625 957.636719 42.953125 941.675781 0 922.28125 C 14.59375 913.121094 29.320313 903.5625 44.152344 893.609375 C 29.320313 872.0625 14.59375 850.117188 0 827.777344 C 42.953125 847.171875 87.015625 863.136719 131.796875 875.664063 "/>
<path style=" stroke:none;fill-rule:nonzero;fill:rgb(78.399658%,42.698669%,0%);fill-opacity:1;" d="M 75.484375 893.496094 C 94.105469 888.164063 112.886719 882.21875 131.796875 875.664063 L 131.796875 911.203125 C 112.886719 905.914063 94.105469 900.011719 75.484375 893.496094 "/>
<path style=" stroke:none;fill-rule:nonzero;fill:rgb(100%,73.298645%,0%);fill-opacity:1;" d="M 75.480469 893.496094 C 273.695313 962.832031 489.71875 962.832031 687.929688 893.496094 L 687.929688 987.996094 C 489.71875 1057.335938 273.695313 1057.335938 75.480469 987.996094 L 75.480469 940.746094 "/>
<path style=" stroke:none;fill-rule:nonzero;fill:rgb(0%,0%,0%);fill-opacity:1;" d="M 181.625 959.007813 C 178.6875 958.320313 175.6875 958.820313 172.613281 960.503906 C 170.050781 961.902344 167.804688 963.867188 165.878906 966.402344 C 164.109375 968.734375 163.164063 970.691406 163.046875 972.277344 C 162.960938 973.441406 163.359375 974.511719 164.25 975.488281 C 165.140625 976.460938 166.199219 977.105469 167.429688 977.410156 C 170.777344 978.25 174.132813 979.066406 177.488281 979.867188 C 178.289063 980.054688 178.867188 980.265625 179.214844 980.492188 C 179.5625 980.71875 179.722656 981.058594 179.691406 981.511719 C 179.648438 982.152344 178.015625 982.785156 174.789063 983.386719 C 171.566406 983.988281 167.96875 984.285156 163.996094 984.269531 C 159.351563 984.25 155.3125 983.769531 151.875 982.84375 C 147.382813 981.636719 143.992188 979.953125 141.699219 977.828125 C 139.40625 975.707031 138.382813 973.195313 138.621094 970.304688 C 138.769531 968.53125 139.414063 966.625 140.554688 964.589844 C 141.691406 962.550781 143.265625 960.457031 145.265625 958.304688 C 144.6875 957.9375 144.109375 957.570313 143.527344 957.199219 C 141.609375 959.398438 140.601563 960.550781 140.507813 960.667969 C 139.015625 962.546875 137.816406 964.40625 136.90625 966.25 C 135.714844 968.667969 135.019531 971.109375 134.8125 973.570313 C 134.511719 977.140625 135.738281 980.242188 138.507813 982.847656 C 141.054688 985.246094 144.878906 987.160156 149.984375 988.542969 C 159.816406 991.199219 167.757813 991.71875 173.738281 990.269531 C 180.261719 988.675781 183.714844 984.84375 184.113281 978.882813 C 184.21875 977.335938 183.585938 976.3125 182.222656 975.800781 C 180.859375 975.292969 179.6875 974.902344 178.699219 974.632813 C 177.714844 974.363281 176.191406 973.980469 174.132813 973.484375 C 172.988281 973.203125 171.84375 972.925781 170.699219 972.644531 C 169.183594 972.269531 168.128906 971.890625 167.53125 971.511719 C 166.933594 971.132813 166.652344 970.714844 166.683594 970.265625 C 166.777344 968.960938 168.164063 967.523438 170.832031 965.9375 C 173.742188 964.214844 176.433594 963.648438 178.917969 964.234375 C 180.34375 964.574219 181.730469 965.214844 183.074219 966.152344 C 184.417969 967.09375 185.554688 968.210938 186.484375 969.507813 C 186.5625 969.1875 186.714844 968.648438 186.941406 967.890625 C 187.164063 967.136719 187.300781 966.375 187.351563 965.613281 C 187.457031 964.046875 186.996094 962.664063 185.976563 961.464844 C 184.953125 960.265625 183.503906 959.449219 181.625 959.007813 "/>
<path style=" stroke:none;fill-rule:nonzero;fill:rgb(0%,0%,0%);fill-opacity:1;" d="M 158.117188 996.539063 C 160.402344 998.148438 162.691406 999.746094 164.984375 1001.339844 C 166.179688 999.886719 167.367188 998.429688 168.558594 996.972656 C 166.296875 995.398438 164.035156 993.816406 161.78125 992.226563 C 160.5625 993.664063 159.339844 995.101563 158.117188 996.539063 "/>
<path style=" stroke:none;fill-rule:nonzero;fill:rgb(0%,0%,0%);fill-opacity:1;" d="M 147.949219 997.101563 C 150.242188 998.753906 152.535156 1000.398438 154.839844 1002.03125 C 156.050781 1000.621094 157.257813 999.207031 158.464844 997.789063 C 156.210938 996.164063 153.957031 994.53125 151.710938 992.890625 C 150.457031 994.296875 149.203125 995.699219 147.949219 997.101563 "/>
<path style=" stroke:none;fill-rule:nonzero;fill:rgb(0%,0%,0%);fill-opacity:1;" d="M 241.558594 1004.421875 C 243.871094 1005.800781 246.183594 1007.171875 248.503906 1008.535156 C 249.71875 1006.976563 250.933594 1005.417969 252.144531 1003.855469 C 249.769531 1002.484375 247.398438 1001.101563 245.03125 999.707031 C 243.878906 1001.28125 242.71875 1002.851563 241.558594 1004.421875 "/>
<path style=" stroke:none;fill-rule:nonzero;fill:rgb(0%,0%,0%);fill-opacity:1;" d="M 216.96875 980.402344 C 217.007813 979.734375 217.335938 979.238281 217.949219 978.910156 C 218.5625 978.582031 219.273438 978.492188 220.082031 978.644531 C 221.203125 978.855469 222.136719 979.410156 222.871094 980.316406 C 223.695313 981.335938 224.359375 983 224.867188 985.300781 C 224.785156 985.285156 224.699219 985.269531 224.617188 985.257813 C 224.613281 985.316406 224.613281 985.371094 224.609375 985.429688 C 221.882813 984.914063 219.914063 984.242188 218.726563 983.425781 C 217.488281 982.578125 216.90625 981.570313 216.96875 980.402344 M 291.175781 966.316406 C 291.511719 965.679688 291.816406 964.695313 292.089844 963.355469 C 292.363281 962.015625 292.519531 960.75 292.554688 959.550781 C 291.101563 958.921875 289.664063 958.292969 288.242188 957.65625 C 286.394531 956.757813 285.496094 955.613281 285.539063 954.226563 C 285.328125 954.074219 285.117188 953.917969 284.90625 953.761719 C 284.171875 955.046875 283.609375 956.390625 283.214844 957.796875 C 282.820313 959.203125 282.597656 960.730469 282.539063 962.378906 C 283.277344 962.765625 284.015625 963.148438 284.757813 963.53125 C 286.132813 973.859375 287.527344 984.179688 288.941406 994.503906 C 283.363281 993.90625 277.789063 993.257813 272.21875 992.558594 C 270.976563 992.179688 268.644531 990.472656 265.246094 987.40625 C 260.851563 983.457031 257.695313 980.71875 255.753906 979.234375 C 251.835938 976.265625 248.417969 974.539063 245.476563 974.074219 C 242.476563 973.601563 239.964844 973.972656 237.925781 975.195313 C 236.519531 976.042969 235.355469 977.277344 234.429688 978.898438 C 235.9375 978.988281 237.429688 979.152344 238.898438 979.394531 C 241.296875 979.792969 243.648438 980.507813 245.960938 981.542969 C 248.015625 982.464844 250.269531 983.773438 252.730469 985.457031 C 254.710938 986.808594 257.140625 988.640625 260.023438 990.941406 C 249.210938 989.429688 238.417969 987.707031 227.652344 985.789063 C 227.824219 982.433594 227.53125 979.738281 226.765625 977.703125 C 225.796875 975.097656 224.0625 973.574219 221.5625 973.109375 C 219.089844 972.648438 216.980469 973.472656 215.230469 975.589844 C 213.734375 977.421875 212.910156 979.558594 212.769531 982.011719 C 212.617188 984.675781 213.605469 986.8125 215.734375 988.402344 C 217.613281 989.796875 220.503906 990.863281 224.414063 991.570313 C 221.992188 993.683594 220.125 995.175781 218.816406 996.0625 C 216.230469 997.816406 213.671875 999.03125 211.140625 999.714844 C 207.894531 1000.574219 204.5 1000.632813 200.96875 999.898438 C 199.550781 999.601563 197.960938 999.09375 196.203125 998.367188 C 194.445313 997.640625 192.765625 996.945313 191.167969 996.28125 C 190.894531 996.644531 190.625 997.003906 190.351563 997.367188 C 192.195313 998.304688 194.042969 999.25 195.890625 1000.199219 C 198.222656 1001.351563 200.125 1002.207031 201.585938 1002.773438 C 203.59375 1003.550781 205.554688 1004.132813 207.472656 1004.515625 C 212.640625 1005.550781 217.328125 1004.25 221.511719 1000.640625 C 224.582031 997.996094 226.4375 995.097656 227.132813 991.980469 C 241.894531 994.609375 256.710938 996.859375 271.558594 998.734375 C 271.558594 998.738281 271.558594 998.738281 271.558594 998.742188 C 271.863281 998.78125 272.164063 998.8125 272.46875 998.851563 C 273.183594 998.941406 273.902344 999.035156 274.617188 999.121094 C 274.617188 999.117188 274.617188 999.113281 274.617188 999.109375 C 280.796875 999.867188 286.976563 1000.574219 293.167969 1001.203125 C 293.238281 998.855469 293.308594 996.515625 293.378906 994.171875 C 291.941406 984.625 290.519531 975.074219 289.117188 965.523438 C 289.804688 965.789063 290.488281 966.050781 291.175781 966.316406 "/>
<path style=" stroke:none;fill-rule:nonzero;fill:rgb(0%,0%,0%);fill-opacity:1;" d="M 306.34375 969.679688 C 305.757813 964.882813 305.273438 961.101563 304.886719 958.332031 C 304.195313 959.347656 303.464844 960.433594 302.699219 961.585938 C 301.929688 962.738281 301.242188 963.816406 300.636719 964.8125 C 301.039063 967.917969 301.40625 970.960938 301.730469 973.941406 C 302.265625 978.859375 302.710938 983.566406 303.070313 988.070313 C 303.429688 992.574219 303.582031 996.070313 303.515625 998.558594 C 303.507813 998.867188 303.453125 999.472656 303.355469 1000.375 C 303.257813 1001.28125 303.15625 1002.074219 303.050781 1002.757813 C 303.3125 1002.902344 303.570313 1003.042969 303.828125 1003.1875 C 305.347656 1001.238281 306.335938 999.800781 306.796875 998.882813 C 307.6875 997.160156 308.160156 995.34375 308.207031 993.425781 C 308.265625 991.011719 308.09375 987.414063 307.691406 982.632813 C 307.378906 978.796875 306.929688 974.476563 306.34375 969.679688 "/>
<path style=" stroke:none;fill-rule:nonzero;fill:rgb(0%,0%,0%);fill-opacity:1;" d="M 374.804688 1025.59375 C 368.316406 1025.535156 362.976563 1025.144531 358.796875 1024.484375 C 353.523438 1023.644531 349.542969 1022.308594 346.855469 1020.527344 C 343.757813 1018.460938 342.238281 1015.726563 342.28125 1012.355469 C 342.324219 1009.121094 344.230469 1006.183594 347.980469 1003.507813 C 350.902344 1001.417969 355.09375 999.414063 360.542969 997.445313 C 363.238281 996.480469 367.632813 995.097656 373.707031 993.222656 C 374.328125 991.359375 374.945313 989.496094 375.558594 987.636719 C 372.238281 988.28125 369.03125 989.074219 365.933594 990.019531 C 363.160156 990.875 360.308594 991.910156 357.382813 993.121094 C 353.796875 992.5625 350.597656 991.667969 347.78125 990.457031 C 344.445313 989.007813 342.789063 987.535156 342.808594 986.078125 C 342.828125 984.714844 344.300781 983.632813 347.21875 982.820313 C 349.609375 982.148438 352.738281 981.679688 356.609375 981.386719 C 359.601563 981.164063 362.527344 981.078125 365.375 981.136719 C 363.230469 979.707031 361.453125 978.667969 360.035156 978.03125 C 357.925781 977.070313 355.925781 976.554688 354.039063 976.492188 C 349.832031 976.355469 346.238281 977.609375 343.238281 980.277344 C 340.621094 982.601563 339.285156 985.027344 339.25 987.5625 C 339.210938 990.386719 340.367188 992.78125 342.738281 994.734375 C 343.804688 995.621094 345.734375 996.699219 348.527344 997.957031 C 346.460938 999.53125 345.011719 1000.703125 344.183594 1001.480469 C 342.464844 1003.128906 341.136719 1004.902344 340.199219 1006.792969 C 339.054688 1009.113281 338.457031 1011.753906 338.410156 1014.71875 C 338.339844 1019.601563 340.269531 1023.453125 344.21875 1026.238281 C 347.347656 1028.453125 351.820313 1030.023438 357.636719 1030.882813 C 361 1031.382813 365.757813 1031.703125 371.90625 1031.777344 C 375.652344 1029.824219 379.390625 1027.847656 383.121094 1025.84375 L 383.121094 1025.523438 C 381.738281 1025.546875 380.351563 1025.566406 378.964844 1025.585938 C 377.578125 1025.601563 376.191406 1025.605469 374.804688 1025.59375 "/>
<path style=" stroke:none;fill-rule:nonzero;fill:rgb(0%,0%,0%);fill-opacity:1;" d="M 424.050781 964.960938 C 421.636719 964.058594 419.226563 963.144531 416.820313 962.21875 C 415.769531 964.007813 414.722656 965.792969 413.667969 967.582031 C 416.023438 968.503906 418.378906 969.417969 420.734375 970.320313 C 421.84375 968.535156 422.945313 966.75 424.050781 964.960938 "/>
<path style=" stroke:none;fill-rule:nonzero;fill:rgb(0%,0%,0%);fill-opacity:1;" d="M 420.820313 987.09375 C 420.066406 987.34375 419.355469 987.480469 418.683594 987.507813 C 416.121094 987.613281 414.828125 986.699219 414.808594 984.78125 C 414.800781 984.042969 415.046875 983.390625 415.550781 982.832031 C 416.054688 982.277344 416.699219 981.984375 417.480469 981.949219 C 418.589844 981.910156 419.757813 982.457031 420.992188 983.601563 C 421.90625 984.449219 422.570313 985.292969 422.992188 986.136719 C 422.296875 986.527344 421.574219 986.847656 420.820313 987.09375 M 430.253906 995.117188 C 430.171875 990.019531 429.296875 985.625 427.644531 981.921875 C 425.65625 977.449219 422.902344 975.296875 419.363281 975.445313 C 416.753906 975.550781 414.65625 977.019531 413.054688 979.851563 C 411.628906 982.390625 410.929688 985.324219 410.960938 988.652344 C 410.980469 990.542969 411.761719 991.96875 413.320313 992.917969 C 414.671875 993.757813 416.414063 994.140625 418.546875 994.050781 C 419.566406 994.011719 420.746094 993.816406 422.085938 993.46875 C 422.898438 993.265625 424.058594 992.925781 425.570313 992.445313 C 426.210938 994.285156 426.546875 996.265625 426.578125 998.398438 C 419.058594 998.769531 411.539063 999.039063 404.015625 999.222656 C 402.722656 999.253906 401.429688 999.285156 400.140625 999.3125 C 399.171875 999.328125 398.277344 998.84375 397.457031 997.851563 C 396.457031 996.671875 395.683594 993.953125 395.140625 989.699219 C 394.8125 980.410156 394.496094 974.527344 394.199219 972.039063 C 393.71875 968.046875 392.914063 964.617188 391.777344 961.757813 C 390.007813 964.097656 388.234375 966.433594 386.460938 968.765625 C 387.589844 969.621094 388.472656 970.621094 389.113281 971.765625 C 389.636719 972.699219 390.054688 973.898438 390.359375 975.367188 C 390.671875 976.835938 390.921875 978.996094 391.121094 981.84375 C 391.316406 984.691406 391.507813 987.46875 391.6875 990.167969 C 391.988281 993.496094 392.414063 996.292969 392.964844 998.558594 C 393.511719 1000.828125 394.316406 1002.53125 395.378906 1003.664063 C 396.582031 1004.964844 398.179688 1005.597656 400.175781 1005.558594 C 401.199219 1005.539063 402.226563 1005.515625 403.253906 1005.488281 L 403.253906 1005.496094 C 403.714844 1005.484375 404.179688 1005.46875 404.640625 1005.457031 C 405.203125 1005.445313 405.765625 1005.433594 406.328125 1005.417969 L 406.328125 1005.410156 C 414.355469 1005.199219 422.382813 1004.882813 430.402344 1004.453125 C 430.351563 1001.339844 430.300781 998.226563 430.253906 995.117188 "/>
<path style=" stroke:none;fill-rule:nonzero;fill:rgb(0%,0%,0%);fill-opacity:1;" d="M 479.0625 993.441406 C 477.039063 984.257813 475.035156 975.070313 473.046875 965.875 C 473.746094 965.992188 474.441406 966.109375 475.140625 966.230469 C 475.4375 965.527344 475.679688 964.480469 475.867188 963.09375 C 476.054688 961.707031 476.128906 960.417969 476.089844 959.21875 C 474.609375 958.902344 473.140625 958.574219 471.6875 958.242188 C 469.796875 957.742188 468.832031 956.792969 468.789063 955.40625 C 468.574219 955.292969 468.351563 955.183594 468.132813 955.074219 C 467.484375 956.503906 467.003906 957.960938 466.703125 959.441406 C 466.398438 960.917969 466.269531 962.484375 466.3125 964.132813 C 467.074219 964.359375 467.832031 964.585938 468.589844 964.8125 C 470.601563 974.78125 472.628906 984.746094 474.675781 994.699219 C 469.972656 995.191406 465.265625 995.632813 460.554688 996.046875 C 460.402344 990.265625 459.4375 985.65625 457.664063 982.214844 C 455.460938 977.941406 451.832031 975 446.78125 973.332031 C 446.617188 975.667969 446.449219 978.003906 446.28125 980.34375 C 450.507813 981.113281 453.5625 983.035156 455.449219 986.140625 C 456.964844 988.628906 457.78125 992.007813 457.886719 996.289063 C 457.820313 996.292969 457.753906 996.300781 457.6875 996.304688 C 452.113281 996.78125 446.53125 997.203125 440.949219 997.570313 C 439.722656 997.648438 438.753906 997.53125 438.046875 997.214844 C 437.191406 996.835938 436.597656 996.167969 436.257813 995.207031 C 435.921875 995.226563 435.585938 995.246094 435.25 995.265625 C 434.945313 996.171875 434.738281 997 434.636719 997.746094 C 434.53125 998.496094 434.488281 999.324219 434.503906 1000.234375 C 434.523438 1001.308594 435.203125 1002.207031 436.550781 1002.914063 C 437.894531 1003.625 439.402344 1003.921875 441.070313 1003.816406 C 446.601563 1003.449219 452.125 1003.023438 457.648438 1002.554688 C 457.648438 1002.558594 457.648438 1002.5625 457.648438 1002.566406 C 458.125 1002.527344 458.601563 1002.476563 459.078125 1002.4375 C 459.621094 1002.390625 460.171875 1002.347656 460.71875 1002.300781 C 460.71875 1002.296875 460.71875 1002.292969 460.71875 1002.289063 C 466.914063 1001.742188 473.105469 1001.144531 479.289063 1000.46875 C 479.210938 998.125 479.136719 995.78125 479.0625 993.441406 "/>
<path style=" stroke:none;fill-rule:nonzero;fill:rgb(0%,0%,0%);fill-opacity:1;" d="M 490.40625 966.386719 C 489.527344 961.742188 488.8125 958.085938 488.257813 955.417969 C 487.632813 956.574219 486.976563 957.804688 486.289063 959.113281 C 485.597656 960.417969 484.980469 961.628906 484.441406 962.746094 C 485.035156 965.75 485.589844 968.695313 486.097656 971.585938 C 486.929688 976.359375 487.664063 980.945313 488.304688 985.34375 C 488.9375 989.742188 489.304688 993.183594 489.394531 995.667969 C 489.40625 995.976563 489.390625 996.59375 489.347656 997.507813 C 489.308594 998.425781 489.257813 999.238281 489.195313 999.9375 C 489.460938 1000.027344 489.726563 1000.113281 489.992188 1000.203125 C 491.378906 997.945313 492.269531 996.308594 492.667969 995.300781 C 493.445313 993.402344 493.800781 991.5 493.726563 989.585938 C 493.636719 987.175781 493.242188 983.636719 492.546875 978.972656 C 492 975.222656 491.285156 971.03125 490.40625 966.386719 "/>
<path style=" stroke:none;fill-rule:nonzero;fill:rgb(0%,0%,0%);fill-opacity:1;" d="M 533.019531 953.128906 C 530.652344 952.507813 528.285156 951.875 525.921875 951.234375 C 524.890625 953.136719 523.855469 955.035156 522.820313 956.9375 C 525.230469 957.566406 527.644531 958.1875 530.058594 958.796875 C 531.046875 956.910156 532.035156 955.019531 533.019531 953.128906 "/>
<path style=" stroke:none;fill-rule:nonzero;fill:rgb(0%,0%,0%);fill-opacity:1;" d="M 542.609375 948.046875 C 540.246094 947.476563 537.882813 946.894531 535.519531 946.304688 C 534.527344 948.226563 533.53125 950.144531 532.535156 952.0625 C 534.929688 952.652344 537.324219 953.238281 539.722656 953.8125 C 540.6875 951.894531 541.648438 949.972656 542.609375 948.046875 "/>
<path style=" stroke:none;fill-rule:nonzero;fill:rgb(0%,0%,0%);fill-opacity:1;" d="M 567.519531 995.65625 C 569.953125 996.152344 572.386719 996.636719 574.820313 997.113281 C 575.777344 995.152344 576.734375 993.191406 577.6875 991.226563 C 575.289063 990.753906 572.886719 990.269531 570.488281 989.777344 C 569.5 991.738281 568.511719 993.699219 567.519531 995.65625 "/>
<path style=" stroke:none;fill-rule:nonzero;fill:rgb(0%,0%,0%);fill-opacity:1;" d="M 557.722656 1000.925781 C 560.175781 1001.460938 562.628906 1001.984375 565.078125 1002.492188 C 566.0625 1000.566406 567.046875 998.636719 568.023438 996.703125 C 565.617188 996.179688 563.214844 995.644531 560.808594 995.101563 C 559.78125 997.042969 558.753906 998.988281 557.722656 1000.925781 "/>
<path style=" stroke:none;fill-rule:nonzero;fill:rgb(0%,0%,0%);fill-opacity:1;" d="M 535.199219 978.691406 C 533.789063 978.9375 532.675781 979.070313 531.859375 979.085938 C 531.046875 979.105469 530.332031 979.058594 529.714844 978.949219 C 530.632813 977.46875 531.789063 976.210938 533.1875 975.160156 C 534.589844 974.113281 536.519531 973 538.984375 971.8125 C 539.328125 973.058594 539.667969 974.308594 540.011719 975.558594 C 538.535156 977.339844 536.929688 978.386719 535.199219 978.691406 M 595.871094 979.757813 C 607.433594 976.898438 618.957031 973.8125 630.425781 970.480469 C 630.253906 968.421875 630.078125 966.363281 629.90625 964.304688 C 627.519531 961.484375 624.46875 958.96875 620.753906 956.742188 C 617.3125 954.652344 613.335938 952.828125 608.820313 951.246094 C 607.601563 950.84375 606.402344 950.433594 605.214844 950.019531 C 603.316406 949.355469 602.347656 948.746094 602.304688 948.199219 C 602.265625 947.65625 603.59375 946.515625 606.285156 944.769531 C 608.402344 943.390625 611.183594 941.742188 614.632813 939.804688 C 617.511719 938.167969 620.386719 936.515625 623.253906 934.851563 C 623.085938 932.800781 622.917969 930.753906 622.746094 928.710938 C 618.902344 931.136719 615.042969 933.539063 611.175781 935.917969 C 605.929688 939.074219 602.273438 941.972656 600.226563 944.671875 C 598.023438 947.605469 597.0625 951.105469 597.359375 955.1875 C 597.410156 955.875 598.363281 956.617188 600.214844 957.402344 C 601.972656 958.042969 603.726563 958.679688 605.484375 959.308594 C 605.925781 958.820313 606.367188 958.328125 606.804688 957.835938 C 611.316406 958.855469 614.921875 959.921875 617.625 961.078125 C 620.328125 962.234375 622.773438 963.78125 624.96875 965.726563 C 615.15625 968.515625 605.308594 971.121094 595.429688 973.566406 C 595.410156 973.304688 595.390625 973.046875 595.371094 972.789063 C 593.015625 963.902344 590.675781 955.003906 588.351563 946.101563 C 589.042969 946.125 589.738281 946.152344 590.429688 946.175781 C 590.695313 945.433594 590.894531 944.359375 591.023438 942.953125 C 591.152344 941.542969 591.175781 940.246094 591.09375 939.058594 C 589.617188 938.9375 588.152344 938.808594 586.707031 938.671875 C 584.820313 938.421875 583.832031 937.605469 583.734375 936.226563 C 583.515625 936.148438 583.292969 936.066406 583.074219 935.984375 C 582.488281 937.5 582.074219 939.015625 581.832031 940.53125 C 581.589844 942.046875 581.523438 943.625 581.636719 945.265625 C 582.390625 945.390625 583.148438 945.515625 583.90625 945.640625 C 586.285156 955.3125 588.683594 964.976563 591.09375 974.632813 C 586.472656 975.753906 581.84375 976.824219 577.207031 977.867188 C 577.152344 977.039063 577.097656 976.210938 577.042969 975.378906 C 576.765625 971.148438 576.179688 968.207031 575.289063 966.546875 C 574.695313 965.449219 573.296875 964.050781 571.101563 962.335938 C 570.113281 964.519531 569.117188 966.699219 568.125 968.878906 C 570.390625 970.34375 571.835938 971.519531 572.445313 972.421875 C 573.34375 973.722656 573.882813 975.773438 574.0625 978.578125 C 567.214844 980.09375 560.351563 981.519531 553.476563 982.871094 C 552.136719 983.132813 550.792969 983.398438 549.449219 983.65625 C 548.496094 983.839844 547.503906 982.777344 546.472656 980.464844 C 545.808594 978.957031 545.023438 976.574219 544.121094 973.328125 C 543.574219 971.355469 543.035156 969.386719 542.492188 967.417969 C 542.011719 966.015625 541.582031 964.652344 541.207031 963.324219 C 540.832031 961.996094 540.460938 960.621094 540.097656 959.195313 C 539.253906 960.214844 538.582031 961.175781 538.078125 962.085938 C 537.472656 963.207031 537.191406 964.167969 537.234375 964.980469 C 537.242188 965.171875 537.363281 965.65625 537.59375 966.429688 C 537.820313 967.207031 537.96875 967.6875 538.035156 967.867188 C 533.308594 970.589844 529.386719 973.449219 526.277344 976.472656 C 523.167969 979.496094 521.652344 982.023438 521.75 984.074219 C 521.777344 984.648438 522.90625 984.945313 525.136719 984.953125 C 527.367188 984.960938 530.144531 984.6875 533.46875 984.113281 C 534.941406 983.859375 536.324219 983.246094 537.613281 982.269531 C 538.902344 981.292969 539.945313 980.058594 540.738281 978.566406 C 541.640625 981.894531 542.746094 984.542969 544.050781 986.515625 C 545.800781 989.152344 547.71875 990.273438 549.800781 989.875 C 550.855469 989.671875 551.910156 989.460938 552.964844 989.253906 C 552.964844 989.257813 552.964844 989.257813 552.964844 989.261719 C 553.46875 989.164063 553.972656 989.058594 554.476563 988.960938 C 554.984375 988.859375 555.492188 988.765625 555.996094 988.664063 L 555.996094 988.65625 C 562.207031 987.421875 568.402344 986.121094 574.59375 984.75 L 574.59375 984.753906 C 574.886719 984.691406 575.175781 984.621094 575.46875 984.554688 C 576.183594 984.398438 576.898438 984.242188 577.613281 984.082031 C 577.613281 984.078125 577.613281 984.074219 577.613281 984.066406 C 582.703125 982.921875 587.789063 981.730469 592.863281 980.496094 C 592.863281 980.5 592.863281 980.503906 592.863281 980.507813 C 593.410156 980.375 593.953125 980.234375 594.496094 980.101563 C 594.957031 979.988281 595.414063 979.882813 595.875 979.769531 C 595.875 979.765625 595.871094 979.761719 595.871094 979.757813 "/>
<path style=" stroke:none;fill-rule:nonzero;fill:rgb(60.798645%,45.098877%,1.599121%);fill-opacity:1;" d="M 709.875 294.945313 C 684.882813 319.410156 626.960938 386.324219 628.859375 479.09375 C 630.753906 571.355469 640.851563 655.871094 645.105469 687.925781 C 646.179688 696.03125 645.136719 704.25 642.082031 711.691406 C 632.222656 735.734375 607.152344 780.101563 550.050781 807.128906 C 478.085938 841.191406 398.902344 897.03125 381.710938 909.378906 L 381.707031 909.375 L 381.703125 909.378906 C 364.511719 897.035156 285.328125 841.191406 213.363281 807.128906 C 156.273438 780.105469 131.203125 735.753906 121.34375 711.71875 C 118.28125 704.261719 117.234375 696.023438 118.3125 687.894531 C 122.566406 655.847656 132.660156 571.347656 134.554688 479.09375 C 136.457031 386.324219 78.53125 319.410156 53.539063 294.945313 C 49.160156 290.660156 48.828125 283.941406 52.761719 279.3125 L 143.355469 172.707031 C 145.707031 169.9375 149.160156 168.484375 152.648438 168.484375 C 155.046875 168.484375 157.460938 169.171875 159.539063 170.589844 C 214.691406 208.269531 304.324219 226.535156 352.847656 234.074219 C 371.996094 237.050781 391.417969 237.050781 410.566406 234.074219 C 459.089844 226.535156 548.722656 208.269531 603.875 170.589844 C 608.980469 167.105469 616.089844 168.03125 620.058594 172.707031 L 710.652344 279.3125 C 714.585938 283.941406 714.253906 290.660156 709.875 294.945313 M 715.738281 274.988281 L 625.144531 168.382813 C 618.890625 161.023438 608.128906 159.601563 600.109375 165.078125 C 546.042969 202.015625 457.507813 220.027344 409.542969 227.476563 C 391.074219 230.347656 372.34375 230.347656 353.871094 227.476563 C 305.90625 220.027344 217.371094 202.015625 163.304688 165.078125 C 155.285156 159.605469 144.523438 161.023438 138.269531 168.382813 L 47.671875 274.988281 C 41.441406 282.320313 41.957031 292.949219 48.867188 299.714844 C 73.242188 323.570313 129.726563 388.792969 127.878906 478.960938 C 125.996094 570.878906 115.933594 655.082031 111.695313 687.015625 C 110.464844 696.300781 111.664063 705.71875 115.167969 714.253906 C 125.394531 739.179688 151.386719 785.179688 210.507813 813.160156 C 281.148438 846.597656 358.921875 901.261719 377.199219 914.363281 L 377.199219 914.496094 L 377.207031 914.5 L 381.207031 917.5 L 386.214844 914.371094 L 386.214844 914.363281 C 404.492188 901.261719 482.269531 846.597656 552.902344 813.160156 C 612.042969 785.171875 638.03125 739.160156 648.257813 714.226563 C 651.753906 705.703125 652.949219 696.304688 651.722656 687.046875 C 647.480469 655.101563 637.417969 570.882813 635.535156 478.960938 C 633.6875 388.796875 690.171875 323.570313 714.546875 299.714844 C 721.457031 292.949219 721.972656 282.320313 715.738281 274.988281 "/>
</g>
</svg>
